/* XPM */
static char *result[] = {
/* columns rows colors chars-per-pixel */
"77 64 168 2 ",
"   c #002519",
".  c #00281E",
"X  c #092C27",
"o  c #0B2E29",
"O  c #002D24",
"+  c #01332B",
"@  c #0C352E",
"#  c #0C3730",
"$  c #003A32",
"%  c #0D3A32",
"&  c #1B3D37",
"*  c #203F39",
"=  c #0E443B",
"-  c #0F493F",
";  c #11463D",
":  c #10483E",
">  c #054D44",
",  c #114B42",
"<  c #125347",
"1  c #12594D",
"2  c #135E51",
"3  c #214A43",
"4  c #274F49",
"5  c #3F534F",
"6  c #3B5F59",
"7  c #156457",
"8  c #166759",
"9  c #176D5E",
"0  c #197565",
"q  c #1B7B6B",
"w  c #4E5F5B",
"e  c #455854",
"r  c #53625F",
"t  c #576461",
"y  c #1B806F",
"u  c #1D8472",
"i  c #1D8977",
"p  c #1E8C79",
"a  c #158C78",
"s  c #1F937F",
"d  c #298B7A",
"f  c #228A78",
"g  c #20947F",
"h  c #29927F",
"j  c #1E9480",
"k  c #219681",
"l  c #2B9482",
"z  c #219A85",
"x  c #239E89",
"c  c #23A28C",
"v  c #37A18E",
"b  c #28A792",
"n  c #24AB94",
"m  c #2EAB96",
"M  c #24A690",
"N  c #30AD97",
"B  c #26B39A",
"V  c #29B59D",
"C  c #27B89F",
"Z  c #32B29C",
"A  c #28BCA2",
"S  c #34BCA5",
"D  c #38BBA5",
"F  c #35B7A1",
"G  c #549C8C",
"H  c #7E8C89",
"J  c #29C2A7",
"K  c #2BC5AA",
"L  c #21CCAF",
"P  c #2BC9AE",
"I  c #26C4A9",
"U  c #3BC7AF",
"Y  c #2CCDB1",
"T  c #37CFB4",
"R  c #39CEB4",
"E  c #2FD6B9",
"W  c #2DDABC",
"Q  c #2ED1B4",
"!  c #33D1B5",
"~  c #3BD1B6",
"^  c #31DCBE",
"/  c #3CDABE",
"(  c #3AD3B9",
")  c #4BC4AE",
"_  c #53CAB2",
"`  c #43D6BD",
"'  c #43D8BF",
"]  c #59D5BF",
"[  c #68CFBC",
"{  c #78C0B2",
"}  c #34DEC1",
"|  c #3CE2C5",
" . c #3FEDD0",
".. c #43DEC4",
"X. c #53DFC3",
"o. c #6BD5C2",
"O. c #71D5C3",
"+. c #43E2C6",
"@. c #44E5C9",
"#. c #48E7CC",
"$. c #46EBCE",
"%. c #4AEACE",
"&. c #57E2C8",
"*. c #44EDD0",
"=. c #4AEDD1",
"-. c #5DEED4",
";. c #51EDD2",
":. c #6AE5CF",
">. c #76E0CD",
",. c #78E1CE",
"<. c #62EED4",
"1. c #6EEAD3",
"2. c #74F0D8",
"3. c #79F1DA",
"4. c #8C9996",
"5. c #909D9B",
"6. c #93A19F",
"7. c #9CA3A1",
"8. c #95A8A5",
"9. c #93A6A3",
"0. c #A4A8A7",
"q. c #A5ABAA",
"w. c #ADB9B6",
"e. c #ACB3B2",
"r. c #B7BEBC",
"t. c #B5C2BF",
"y. c #B8D6D0",
"u. c #81E7D5",
"i. c #83ECD9",
"p. c #99E4D4",
"a. c #9EEDDF",
"s. c #83F1DD",
"d. c #8DF3DF",
"f. c #8CF4E2",
"g. c #93F5E4",
"h. c #9DF5E5",
"j. c #A2F6E7",
"k. c #ADF5E7",
"l. c #A6F6E8",
"z. c #ABF7E9",
"x. c #B2F7EB",
"c. c #BBF6EA",
"v. c #B3F8EB",
"b. c #BDF8EE",
"n. c #C1C3C2",
"m. c #C3C9C8",
"M. c #DADEDD",
"N. c #DCE1E1",
"B. c #D7EEE9",
"V. c #C1F4EB",
"C. c #CEF5EE",
"Z. c #C2F9EE",
"A. c #C2F0E7",
"S. c #C6F9F0",
"D. c #CBFAF1",
"F. c #D3FAF3",
"G. c #DAFBF5",
"H. c #E7E8E8",
"J. c #E9ECEC",
"K. c #E2E3E3",
"L. c #EDF0EF",
"P. c #E1F2EF",
"I. c #E6FDF9",
"U. c #ECFDFA",
"Y. c #E8FAF7",
"T. c #F4FEFC",
"R. c #FDFEFE",
"E. c None",
/* pixels */
"E.E.E.E.E.E.E.E.E.E.E.E.E.E.E.E.E.E.E.E.E.E.E.E.E.E.E.E.E.E.E.E.E.E.E.E.E.E.E.E.E.E.E.E.E.E.E.E.E.E.E.E.E.E.E.E.E.E.E.E.E.E.E.E.E.E.E.E.E.E.E.E.E.E.E.E.E.",
"E.E.E.E.E.E.E.E.E.E.E.E.E.E.E.E.E.E.E.E.E.E.E.E.E.E.E.E.E.E.E.E.E.E.E.E.E.E.E.E.E.E.E.E.E.E.E.E.E.E.E.E.E.E.E.E.E.E.E.E.E.E.E.E.E.E.E.E.E.E.E.E.E.E.E.E.E.",
"E.E.E.E.E.E.E.E.E.E.E.E.E.E.E.E.E.E.E.E.E.E.E.E.E.E.E.E.E.E.E.E.E.E.E.E.E.E.E.E.E.E.E.E.E.E.E.E.E.E.E.E.E.E.E.E.E.E.E.E.E.E.E.E.E.E.E.E.E.E.E.E.E.E.E.E.E.",
"E.E.E.E.E.E.E.E.E.E.E.E.E.E.E.E.E.E.E.E.E.E.E.E.E.E.E.E.E.E.E.E.E.E.E.E.E.E.E.E.E.E.E.E.E.E.E.E.E.E.E.E.E.E.E.E.E.E.E.E.E.E.E.E.E.E.E.E.E.E.E.E.E.E.E.E.E.",
"E.E.E.E.E.E.E.E.E.E.E.E.E.E.E.E.E.E.E.E.E.E.E.E.E.E.E.E.E.E.E.E.E.E.E.E.E.E.E.E.E.E.E.E.E.E.E.E.E.E.E.E.E.E.E.E.E.E.E.E.E.E.E.E.E.E.E.E.E.E.E.E.E.E.E.E.E.",
"E.E.E.E.E.E.E.E.E.E.E.E.E.E.E.E.E.E.E.E.E.E.E.E.E.E.E.E.E.E.E.E.E.E.E.E.E.E.E.E.E.E.E.E.E.E.E.E.E.E.E.E.E.E.E.E.E.E.E.E.E.E.E.E.E.E.E.E.E.E.E.E.E.E.E.E.E.",
"E.E.E.E.E.E.E.E.E.E.E.E.E.E.E.E.E.E.E.E.E.E.E.E.E.E.E.E.E.E.@ # # # # # # # # # # # # # # # # E.E.E.E.E.E.E.E.E.E.E.E.E.E.E.E.E.E.E.E.E.E.E.E.E.E.E.E.E.E.",
"E.E.E.E.E.E.E.E.E.E.E.E.E.E.E.E.E.E.E.E.E.E.E.E.E.E.E.E.E.E.@ % # # # # # # # # # # # # # # # E.E.E.E.E.E.E.E.E.E.E.E.E.E.E.E.E.E.E.E.E.E.E.E.E.E.E.E.E.E.",
"E.E.E.E.E.E.E.E.E.E.E.E.E.E.E.E.E.E.E.E.E.E.E.E.E.E.E.E.E.E.. .                               E.E.E.E.E.E.E.E.E.E.E.E.E.E.E.E.E.E.E.E.E.E.E.E.E.E.E.E.E.E.",
"E.E.E.E.E.E.E.E.E.E.E.E.E.E.E.E.E.E.E.E.E.E.E.E.E.E.E.E.E.E.H 7.0.0.0.0.0.0.0.0.0.0.0.0.0.0.0.E.E.E.E.E.E.E.E.E.E.E.E.E.E.E.E.E.E.E.E.E.E.E.E.E.E.E.E.E.E.",
"E.E.E.E.E.E.E.E.E.E.E.E.E.E.E.E.E.E.E.E.E.E.E.E.E.E.# # + 5 w.J.R.R.R.R.R.R.R.R.R.R.R.R.R.R.J.t + # # E.E.E.E.E.E.E.E.E.E.E.E.E.E.E.E.E.E.E.E.E.E.E.E.E.E.",
"E.E.E.E.E.E.E.E.E.E.E.E.E.E.E.E.E.E.E.E.E.E.E.E.E.E.# % + 5 w.L.R.R.R.R.R.R.R.R.R.R.R.R.R.R.J.t + # # E.E.E.E.E.E.E.E.E.E.E.E.E.E.E.E.E.E.E.E.E.E.E.E.E.E.",
"E.E.E.E.E.E.E.E.E.E.E.E.E.E.E.E.E.E.E.E.E.E.E.E.E.E.* * & e w.L.R.R.R.R.R.R.R.R.R.R.R.R.R.R.H.t $ % % E.E.E.E.E.E.E.E.E.E.E.E.E.E.E.E.E.E.E.E.E.E.E.E.E.E.",
"E.E.E.E.E.E.E.E.E.E.E.E.E.E.E.E.E.E.E.E.E.E.E.E.E.E.H 9.9.8.y.C.G.G.F.F.F.G.G.F.F.G.G.U.U.U.B.G a p q , E.E.E.E.E.E.E.E.E.E.E.E.E.E.E.E.E.E.E.E.E.E.E.E.E.",
"E.E.E.E.E.E.E.E.E.E.E.E.E.E.E.E.E.E.E.E.E.E.E.# @ + e.N.N.N.A.v.x.v.x.x.v.v.z.x.v.v.b.D.G.G.V._ I K c - @ % # E.E.E.E.E.E.E.E.E.E.E.E.E.E.E.E.E.E.E.E.E.E.",
"E.E.E.E.E.E.E.E.E.E.E.E.E.E.E.E.E.E.E.E.E.E.E.# @ + n.R.R.R.D.l.h.j.j.j.j.j.l.j.j.l.v.S.F.F.Z.X.W ^ n ; % # # E.E.E.E.E.E.E.E.E.E.E.E.E.E.E.E.E.E.E.E.E.E.",
"E.E.E.E.E.E.E.E.E.E.E.E.E.E.E.E.E.E.E.E.E.E.E.+ + O n.R.R.R.D.z.j.l.j.j.j.j.j.j.j.j.x.S.F.D.Z.X.W W n - # # # E.E.E.E.E.E.E.E.E.E.E.E.E.E.E.E.E.E.E.E.E.E.",
"E.E.E.E.E.E.E.E.E.E.E.E.E.E.E.E.E.E.E.E.E.E.E.r r r m.R.R.T.S.z.j.j.j.j.j.j.l.k.k.x.v.Z.S.C.x.X.} | n - % # # E.E.E.E.E.E.E.E.E.E.E.E.E.E.E.E.E.E.E.E.E.E.",
"E.E.E.E.E.E.E.E.E.E.E.E.E.E.E.E.E.E.# # @ 3 4.K.H.H.P.G.G.G.b.l.j.j.j.j.j.j.D.T.T.U.Z.f.2.3.1.=.$.$.F , # # # E.E.E.E.E.E.E.E.E.E.E.E.E.E.E.E.E.E.E.E.E.E.",
"E.E.E.E.E.E.E.E.E.E.E.E.E.E.E.E.E.E.# # @ 3 5.T.R.R.U.D.D.D.v.l.j.j.j.j.j.j.G.R.R.R.Z.3. .*.=.=.=.=.D , % # # E.E.E.E.E.E.E.E.E.E.E.E.E.E.E.E.E.E.E.E.E.E.",
"E.E.E.E.E.E.E.E.E.E.E.E.E.E.E.E.E.E.@ % + 3 5.T.R.R.U.F.F.D.v.l.h.j.j.j.j.h.F.R.R.R.Z.3.*.=.*.=.=.=.D = X X X E.E.E.E.E.E.E.E.E.E.E.E.E.E.E.E.E.E.E.E.E.E.",
"E.E.E.E.E.E.E.E.E.E.E.E.E.E.E.E.E.E.@ @ + 3 4.R.R.R.I.Z.S.S.Z.b.Z.Z.b.v.x.x.F.T.T.T.D.g.3.s.3.=.=.=.U i y y q 8 E.E.E.E.E.E.E.E.E.E.E.E.E.E.E.E.E.E.E.E.E.",
"E.E.E.E.E.E.E.E.E.E.E.E.E.E.E.E.E.E.@ @ @ 3 5.T.R.R.F.l.l.z.G.T.R.T.U.F.D.D.F.F.G.F.D.D.S.D.v.-.=.=.| Q Y Y A q o % # E.E.E.E.E.E.E.E.E.E.E.E.E.E.E.E.E.E.",
"E.E.E.E.E.E.E.E.E.E.E.E.E.E.E.E.E.E.@ @ @ 3 5.L.R.R.F.j.j.z.G.T.R.R.T.F.F.D.F.F.F.D.F.F.D.F.Z.<.=.=.| | ^ E P u o @ # E.E.E.E.E.E.E.E.E.E.E.E.E.E.E.E.E.E.",
"E.E.E.E.E.E.E.E.E.E.E.E.E.E.E.E.E.E.% % @ 3 5.T.R.R.F.j.j.z.G.R.R.R.T.F.F.D.F.F.D.F.F.F.F.F.S.<.=.%.#.^ ^ W P y o % # E.E.E.E.E.E.E.E.E.E.E.E.E.E.E.E.E.E.",
"E.E.E.E.E.E.E.E.E.E.E.E.E.E.E.E.E.E.4 4 3 5 9.Y.T.T.F.k.z.x.F.U.U.T.U.D.D.D.D.D.D.S.D.S.D.S.b.&.@.+.+.^ ^ / P u o @ # E.E.E.E.E.E.E.E.E.E.E.E.E.E.E.E.E.E.",
"E.E.E.E.E.E.E.E.E.E.E.E.E.E.E.# + w e.r.r.y.y.C.F.D.F.G.G.G.D.S.Z.Z.b.z.z.k.l.z.k.x.k.k.z.z.a.) S J R | @.| ~ f o # # E.E.E.E.E.E.E.E.E.E.E.E.E.E.E.E.E.E.",
"E.E.E.E.E.E.E.E.E.E.E.E.E.E.# # + t M.R.R.T.G.l.j.j.G.R.R.R.b.g.f.f.f.f.f.f.f.f.f.f.f.f.f.f.u.v g g S @.=.=.' d X # # E.E.E.E.E.E.E.E.E.E.E.E.E.E.E.E.E.E.",
"E.E.E.E.E.E.E.E.E.E.E.E.E.E.# # + r M.R.R.R.G.k.j.j.G.R.R.R.Z.g.f.f.f.f.f.f.f.f.f.f.f.f.f.f.u.v g k S @.=.$.` d X @ % E.E.E.E.E.E.E.E.E.E.E.E.E.E.E.E.E.E.",
"E.E.E.E.E.E.E.E.E.E.E.E.E.E.# # + t M.R.R.T.G.l.j.j.G.R.R.T.b.g.f.f.f.f.f.f.f.f.f.f.f.f.f.f.u.v k s S @.=.=...d = , , E.E.E.E.E.E.E.E.E.E.E.E.E.E.E.E.E.E.",
"E.E.E.E.E.E.E.E.E.E.E.E.E.E.# # + t N.T.R.T.G.l.j.j.Z.G.G.G.x.g.f.f.f.f.f.f.f.f.f.f.f.f.f.f.u.v j s S @.=.=.#.! J K V 1 @ # # E.E.E.E.E.E.E.E.E.E.E.E.E.E.",
"E.E.E.E.E.E.E.E.E.E.E.E.E.E.# # O t N.R.R.R.G.l.j.j.b.F.F.D.l.g.f.f.f.f.f.f.f.f.f.f.f.f.f.f.u.v j g S @.=.=.$.| ^ W Y 2 @ # # E.E.E.E.E.E.E.E.E.E.E.E.E.E.",
"E.E.E.E.E.E.E.E.E.E.E.E.E.E.# # + t M.T.R.T.G.l.j.j.b.F.F.F.l.g.f.f.f.f.f.f.f.f.f.f.f.f.f.f.u.v g s S @.=.=.=.| W } Y 2 @ # # E.E.E.E.E.E.E.E.E.E.E.E.E.E.",
"E.E.E.E.E.E.E.E.E.E.E.E.E.E.# # + t N.R.R.R.G.z.k.l.x.Z.A.c.j.f.f.f.f.d.f.f.f.f.f.f.f.f.f.f.u.v s k Z ' ......! Y Q A 2 @ # # E.E.E.E.E.E.E.E.E.E.E.E.E.E.",
"E.E.E.E.E.E.E.E.E.E.E.E.E.E.# # O t M.R.R.R.I.b.b.b.a.>.O.,.i.f.f.f.f.f.f.f.f.f.f.f.f.f.f.f.i.v s k c m m N m b M M j < @ # # E.E.E.E.E.E.E.E.E.E.E.E.E.E.",
"E.E.E.E.E.E.E.E.E.E.E.E.E.E.# # + t N.R.R.R.U.F.D.F.p.~ ( ' :.f.f.f.f.f.f.f.f.f.f.f.f.f.f.f.u.v s k p f f u u u u u q = # # # E.E.E.E.E.E.E.E.E.E.E.E.E.E.",
"E.E.E.E.E.E.E.E.E.E.E.E.E.E.# # + t M.R.R.R.U.F.F.F.p.L P ! :.s.g.f.f.f.f.f.f.f.f.f.f.f.f.f.u.v j j p q q q q q q q 0 = @ # # E.E.E.E.E.E.E.E.E.E.E.E.E.E.",
"E.E.E.E.E.E.E.E.E.E.E.E.E.E.# # + r M.R.R.R.U.F.F.F.p.L Y T :.s.f.f.f.f.f.f.f.f.f.f.f.f.f.f.u.v s k p q q q q q q q 0 = @ # # E.E.E.E.E.E.E.E.E.E.E.E.E.E.",
"E.E.E.E.E.E.E.E.E.E.E.E.E.E.# # + t N.R.R.R.G.x.k.k.,.} / / ] o.O.O.O.O.O.O.o.O.O.O.O.O.O.O.[ Z n B M c c c x p u u q = # # # E.E.E.E.E.E.E.E.E.E.E.E.E.E.",
"E.E.E.E.E.E.E.E.E.E.E.E.E.E.# # + t M.T.R.U.b.<.=.;.=.=.=.@.D x k z l k k k k k k h z h z z c P Y Y Y Y Y Y K M k k i , @ # # E.E.E.E.E.E.E.E.E.E.E.E.E.E.",
"E.E.E.E.E.E.E.E.E.E.E.E.E.E.# # + r M.R.R.T.c.-.=.=.=.=.=.#.S x k k k k z j k j k k k k k j c P Y Y Y Y Y Y I n k k i , @ # # E.E.E.E.E.E.E.E.E.E.E.E.E.E.",
"E.E.E.E.E.E.E.E.E.E.E.E.E.E.# # + t M.T.R.Y.c.-.=.=.=.$.$.#.S x k k j k j j k k z j z j k j c K P Y Y Y Y Y P M j k i , # # # E.E.E.E.E.E.E.E.E.E.E.E.E.E.",
"E.E.E.E.E.E.E.E.E.E.E.E.E.E.E.E.E.E.5.7.7.8.{ %.=.=.` Z Z Z V V C C A C C C C C C A C C C C B c c x B P Y Y A p 7 8 7 E.E.E.E.E.E.E.E.E.E.E.E.E.E.E.E.E.E.",
"E.E.E.E.E.E.E.E.E.E.E.E.E.E.E.E.E.E.$ $ $ > l #.=.=.S q q f m J P P P P P P P Y P P P P P P J i q q c K Y P A q @ # % E.E.E.E.E.E.E.E.E.E.E.E.E.E.E.E.E.E.",
"E.E.E.E.E.E.E.E.E.E.E.E.E.E.E.E.E.E.@ @ @ ; l #.=.=.S q q u B K Y Y Y Y Y Y Y Y Y Y Y Y Y Y J u q q c K Y P A q @ # # E.E.E.E.E.E.E.E.E.E.E.E.E.E.E.E.E.E.",
"E.E.E.E.E.E.E.E.E.E.E.E.E.E.E.E.E.E.% # @ ; l #.=.=.D 0 q u n K Y Y Y Y Y Y Y Y Y Y Y Y Y Y J i q q x J Y P A q o # # E.E.E.E.E.E.E.E.E.E.E.E.E.E.E.E.E.E.",
"E.E.E.E.E.E.E.E.E.E.E.E.E.E.E.E.E.E.# # @ ; h @.$.$.D q q y B K Y Y Y Y Y Y Y Y Y Y Y Y Y Y K u q q j A J J B 0 o # # E.E.E.E.E.E.E.E.E.E.E.E.E.E.E.E.E.E.",
"E.E.E.E.E.E.E.E.E.E.E.E.E.E.E.E.E.E.# @ @ ; f ^ } } B 0 q u n K Y Y Y Y Y Y Y Y Y Y Y Y Y Y I i q q i c c z s 7 @ # # E.E.E.E.E.E.E.E.E.E.E.E.E.E.E.E.E.E.",
"E.E.E.E.E.E.E.E.E.E.E.E.E.E.E.E.E.E.# # @ = i E ^ ^ B q q u n P Y Y Y Y Y Y Y Y Y Y Y Y Y Y K u q q u s k k i 1 @ # # E.E.E.E.E.E.E.E.E.E.E.E.E.E.E.E.E.E.",
"E.E.E.E.E.E.E.E.E.E.E.E.E.E.E.E.E.E.# # @ : i W ^ ^ B 0 q u n P Y Y Y Y Y Y Y Y Y Y Y Y Y Y J u q q u k j k i 7 @ # # E.E.E.E.E.E.E.E.E.E.E.E.E.E.E.E.E.E.",
"E.E.E.E.E.E.E.E.E.E.E.E.E.E.E.E.E.E.# # # = y C A A c u u i B K Y Y Y Y Y Y Y Y Y Y Y Y Y Y K p u u u q y q q 1 @ # # E.E.E.E.E.E.E.E.E.E.E.E.E.E.E.E.E.E.",
"E.E.E.E.E.E.E.E.E.E.E.E.E.E.E.E.E.E.E.E.E.E.E.= = = 0 k k j V P Y Y Y Y Y Y Y Y Y Y Y Y Y Y K z k k q = = % % E.E.E.E.E.E.E.E.E.E.E.E.E.E.E.E.E.E.E.E.E.E.",
"E.E.E.E.E.E.E.E.E.E.E.E.E.E.E.E.E.E.E.E.E.E.E.# @ @ 0 k k z C P Y Y Y Y Y Y Y Y Y Y Y Y Y Y K z j k 0 = # @ @ E.E.E.E.E.E.E.E.E.E.E.E.E.E.E.E.E.E.E.E.E.E.",
"E.E.E.E.E.E.E.E.E.E.E.E.E.E.E.E.E.E.E.E.E.E.E.# @ @ 0 k j z V P Y Y Y Y Y Y Y P Y Y Y Y Y P K z j k 0 = # # % E.E.E.E.E.E.E.E.E.E.E.E.E.E.E.E.E.E.E.E.E.E.",
"E.E.E.E.E.E.E.E.E.E.E.E.E.E.E.E.E.E.E.E.E.E.E.# # @ 8 q q u z c M M n M M n M M M M M n n n c u q y 9 = # % @ E.E.E.E.E.E.E.E.E.E.E.E.E.E.E.E.E.E.E.E.E.E.",
"E.E.E.E.E.E.E.E.E.E.E.E.E.E.E.E.E.E.E.E.E.E.E.E.E.E.< 1 1 1 7 9 9 9 9 0 9 9 9 0 9 9 9 0 9 9 9 1 1 1 < E.E.E.E.E.E.E.E.E.E.E.E.E.E.E.E.E.E.E.E.E.E.E.E.E.E.",
"E.E.E.E.E.E.E.E.E.E.E.E.E.E.E.E.E.E.E.E.E.E.E.E.E.E.# # # @ @ @ # # @ # @ @ # @ @ @ # @ @ @ @ @ # # # E.E.E.E.E.E.E.E.E.E.E.E.E.E.E.E.E.E.E.E.E.E.E.E.E.E.",
"E.E.E.E.E.E.E.E.E.E.E.E.E.E.E.E.E.E.E.E.E.E.E.E.E.E.# # % @ % # # # # @ % @ # # # # % @ # % # # # # # E.E.E.E.E.E.E.E.E.E.E.E.E.E.E.E.E.E.E.E.E.E.E.E.E.E.",
"E.E.E.E.E.E.E.E.E.E.E.E.E.E.E.E.E.E.E.E.E.E.E.E.E.E.E.# @ # % @ # % # % # % # # # # # # # # # # # # # E.E.E.E.E.E.E.E.E.E.E.E.E.E.E.E.E.E.E.E.E.E.E.E.E.E.",
"E.E.E.E.E.E.E.E.E.E.E.E.E.E.E.E.E.E.E.E.E.E.E.E.E.E.E.E.E.E.E.E.E.E.E.E.E.E.E.E.E.E.E.E.E.E.E.E.E.E.E.E.E.E.E.E.E.E.E.E.E.E.E.E.E.E.E.E.E.E.E.E.E.E.E.E.E.",
"E.E.E.E.E.E.E.E.E.E.E.E.E.E.E.E.E.E.E.E.E.E.E.E.E.E.E.E.E.E.E.E.E.E.E.E.E.E.E.E.E.E.E.E.E.E.E.E.E.E.E.E.E.E.E.E.E.E.E.E.E.E.E.E.E.E.E.E.E.E.E.E.E.E.E.E.E.",
"E.E.E.E.E.E.E.E.E.E.E.E.E.E.E.E.E.E.E.E.E.E.E.E.E.E.E.E.E.E.E.E.E.E.E.E.E.E.E.E.E.E.E.E.E.E.E.E.E.E.E.E.E.E.E.E.E.E.E.E.E.E.E.E.E.E.E.E.E.E.E.E.E.E.E.E.E.",
"E.E.E.E.E.E.E.E.E.E.E.E.E.E.E.E.E.E.E.E.E.E.E.E.E.E.E.E.E.E.E.E.E.E.E.E.E.E.E.E.E.E.E.E.E.E.E.E.E.E.E.E.E.E.E.E.E.E.E.E.E.E.E.E.E.E.E.E.E.E.E.E.E.E.E.E.E.",
"E.E.E.E.E.E.E.E.E.E.E.E.E.E.E.E.E.E.E.E.E.E.E.E.E.E.E.E.E.E.E.E.E.E.E.E.E.E.E.E.E.E.E.E.E.E.E.E.E.E.E.E.E.E.E.E.E.E.E.E.E.E.E.E.E.E.E.E.E.E.E.E.E.E.E.E.E."
};
