/* XPM */
static char *_d08dd3fa3f64b1c96d12a2f9eafa0c0Tp9QoYdDfHRjiUDF[] = {
/* columns rows colors chars-per-pixel */
"64 108 227 2 ",
"   c None",
".  c #030D03",
"X  c #000100",
"o  c #051B04",
"O  c #091D06",
"+  c #081707",
"@  c #10190E",
"#  c #0A2207",
"$  c #0C2409",
"%  c #0E2B09",
"&  c #062704",
"*  c #112E0D",
"=  c #11330D",
"-  c #14380E",
";  c #172915",
":  c #193815",
">  c #0C3208",
",  c #21381E",
"<  c #273C24",
"1  c #333E31",
"2  c #1C4617",
"3  c #155011",
"4  c #22451D",
"5  c #24591D",
"6  c #047A04",
"7  c #1A6917",
"8  c #187816",
"9  c #127D0E",
"0  c #23651E",
"q  c #25741E",
"w  c #294B25",
"e  c #2A5B24",
"r  c #2B5425",
"t  c #31592D",
"y  c #364533",
"u  c #365C31",
"i  c #3A5838",
"p  c #296423",
"a  c #2A6D23",
"s  c #2C6727",
"d  c #32632C",
"f  c #336C2C",
"g  c #2C7425",
"h  c #2D7B25",
"j  c #297725",
"k  c #34732D",
"l  c #327B2B",
"z  c #39762F",
"x  c #366331",
"c  c #3A6436",
"v  c #3A6B35",
"b  c #3E6B3B",
"n  c #3A6636",
"m  c #3B7334",
"M  c #367B32",
"N  c #3B7C34",
"B  c #3E7239",
"V  c #397735",
"C  c #415F3D",
"Z  c #426D3E",
"A  c #43653F",
"S  c #42733C",
"D  c #437C3C",
"F  c #475845",
"G  c #456C42",
"H  c #4A6846",
"J  c #516A4D",
"K  c #467341",
"L  c #4A7545",
"P  c #467B41",
"I  c #4A7C44",
"U  c #4D744A",
"Y  c #4E7B49",
"T  c #51754D",
"R  c #527D4D",
"E  c #586A55",
"W  c #557451",
"Q  c #567C52",
"!  c #597C56",
"~  c #5D7C5A",
"^  c #597356",
"/  c #61795E",
"(  c #677A65",
")  c #717F6E",
"_  c #687267",
"`  c #078705",
"'  c #11870E",
"]  c #198616",
"[  c #21861D",
"{  c #24901C",
"}  c #2C8B24",
"|  c #298725",
" . c #34842D",
".. c #348C2B",
"X. c #338A28",
"o. c #2A9725",
"O. c #33932B",
"+. c #3A992E",
"@. c #3D8335",
"#. c #3B8C33",
"$. c #3B8836",
"%. c #3D9335",
"&. c #3D9A35",
"*. c #3FA330",
"=. c #418D36",
"-. c #44833C",
";. c #448C3B",
":. c #45863B",
">. c #44933B",
",. c #49933E",
"<. c #499A3E",
"1. c #449B3A",
"2. c #47A63B",
"3. c #4BB13C",
"4. c #4B8444",
"5. c #4C8B44",
"6. c #4E8748",
"7. c #478543",
"8. c #53844C",
"9. c #538B4C",
"0. c #548C4B",
"q. c #4C9242",
"w. c #4C9B42",
"e. c #459742",
"r. c #519346",
"t. c #53924B",
"y. c #549B4A",
"u. c #56994B",
"i. c #568351",
"p. c #5A8455",
"a. c #578B50",
"s. c #5B8C54",
"d. c #5E835A",
"f. c #5E8B59",
"g. c #5C9454",
"h. c #5C9B54",
"j. c #5D9758",
"k. c #61845E",
"l. c #628C5C",
"z. c #62935B",
"x. c #639B5C",
"c. c #609957",
"v. c #4DA545",
"b. c #55A24B",
"n. c #59A54D",
"m. c #55AA4A",
"M. c #56A949",
"N. c #57B249",
"B. c #5CA353",
"V. c #5CAB53",
"C. c #5BAA56",
"Z. c #5FB154",
"A. c #4EB040",
"S. c #64A35B",
"D. c #69AC5E",
"F. c #64A65A",
"G. c #65B657",
"H. c #658462",
"J. c #668C61",
"K. c #698B65",
"L. c #6C8569",
"P. c #6E8C6A",
"I. c #698565",
"U. c #718C6E",
"Y. c #669261",
"T. c #6A9464",
"R. c #6A9B63",
"E. c #6E946A",
"W. c #6E9C6A",
"Q. c #679A61",
"!. c #72946D",
"~. c #729B6C",
"^. c #748C71",
"/. c #7C8C7A",
"(. c #768774",
"). c #759372",
"_. c #799475",
"`. c #759B72",
"'. c #7A9B74",
"]. c #7D937B",
"[. c #7E9B7A",
"{. c #6CA365",
"}. c #6BAA63",
"|. c #6BA666",
" X c #73A36C",
".X c #73AC6B",
"XX c #70AD66",
"oX c #6CB462",
"OX c #74B66B",
"+X c #7AA474",
"@X c #7BAB74",
"#X c #7DA479",
"$X c #78A872",
"%X c #7BB573",
"&X c #67C259",
"*X c #76C36A",
"=X c #808D7E",
"-X c #81947E",
";X c #819B7D",
":X c #82A47D",
">X c #82AA7C",
",X c #84B77C",
"<X c #84C37A",
"1X c #848F83",
"2X c #859483",
"3X c #899486",
"4X c #859983",
"5X c #8C988A",
"6X c #959C93",
"7X c #90988E",
"8X c #8DA48B",
"9X c #89A985",
"0X c #92A58F",
"qX c #8BBB84",
"wX c #8BB486",
"eX c #92B38D",
"rX c #93BB8C",
"tX c #98A995",
"yX c #99B795",
"uX c #A1BC9E",
"iX c #A0A79E",
"pX c #A3ABA3",
"aX c #AABBA7",
"sX c #B2BEB0",
"dX c #94C28D",
"fX c #A0C29B",
"gX c #B2C3AF",
/* pixels */
"                                                                                                                                ",
"                                                                                                                                ",
"                                                                                                                                ",
"                                                                                                                                ",
"                                                                                                                                ",
"                                                                                                                                ",
"                                                                                                                                ",
"                                                                                                                                ",
"                                                              +.&.                                                              ",
"                                                           .O.+.1.b.oX                                                          ",
"                                                      *.+.....#.w.F.%XqXrX                                                      ",
"                                                  A.3.2.*.+.#.=.y.D.%X,XqXrXrX                                                  ",
"                                              N.N.N.N.3.3.2.2.w.B.D.OX*X<X<XdXdXrX                                              ",
"                                          %.2.2.3.A.A.A.v.2.<.w.B.G.oX&X*X*X*X<XqXwXW.                                          ",
"                                      s.5.,.2.2.2.m.V.D.S.h.t.y.n.G.G.G.&X&X*X*X,X>XQ.g.R.                                      ",
"                                  qXwX@X{.B.M.m.Z.OXqXrXeX>X}.V.N.Z.G.G.G.%X%X%X{.T.`.>XrXfXdX                                  ",
"                              n.}.%XqX,X%X}.m.m.oX%XeXyXyXrX%XG.Z.Z.D..X,XrXrXwX XR.9XrXyXrXqXXXn.                              ",
"                            |.C.V.Z.oX%X%X}.v.m.oX.X$X+XwXyXqXOXF.D.%XrXfXgXgXfXqX,XdXrX9X XS.n.b.q.                            ",
"                            $X{.b.2.v.V.C.v.&.2.C.C.|.>XyXgXuXeX9XwXyXuXfXfXdXdX<X*X<X,X.Xh.q.q.q.5.                            ",
"                            `.Q.t.O.o.o.o.o.o.2.C.}.%XyXsXgXaXyXyXaXsXfXrX%XoXG.G.G.G.G.n.y.5.5.9.s.                            ",
"                            a.t.e.} { O.e.e.e.|.eXuXaXaXyXtX9X9XtXsXgXuX,XoXG.G.N.M.<.>.:.:.4.l.!.-X                            ",
"                             .#.%.O.O.>.h.Q.{.wXaXgXaXyX9X`.J.E.8XuXaXrXOXD.B.b.<.%. .V Z D 9.E.4X6X                            ",
"                            X.#.%.1.&.1.j.~.9XtXaXyX9X`.`.[.`.Y.E.4X8X@XF.S.y.#.| | l P Q 8.s.!.4X6X                            ",
"                            O...#.>.%.%.y.{.:XtXpX9X{.Q.#X8X#XT.f.Y.~.x.h.h.5.h 6 8 N i.J.f.p.U.2X7X                            ",
"                            +.X.l l  .#.w.B.{.9X0X@XoXXX>XeX:XT.a.9.s.s.g.z.9.j 6 8 N p.K.d.R L.=X7X                            ",
"                            +.X.j p p k 5.u.h.T.E.}.G.D..X$XT.9.5.5.5.9.s.T.f.j 6 8 k L W U U L.=X7X                            ",
"                            +.X.q 2 2 t 4.g.h.0.4.b.Z.F.S.h.8.7.;.;.:.6.f.U.H.l 6 8 a v H J ~ (.1X7X                            ",
"                            2...q 2 : w R x.{.g.7.y.m.n.h.c.s.8.5.:.D L d.^.I.M 9 8 a S ^ L._.4X5X5X                            ",
"                            b.q.M 5 * < L j.{.j.7.:.;.q.u.Q.'._.s.-.S T H.U.J.M h N Q H.U._.;X4X-X].                            ",
"                            }.h.4.d 4 w m r.h.g.P d e m 8.E.0XtXJ.D U / L.P.f.@.7.f._.-X_.'.'.!.E.E.                            ",
"                            .XS.g.4.I Y 7.q.y.w.@.e : r G I.tXiXK.! (./._.E.a.;.f._.4X;X~.Q.Y.z.Y.E.                            ",
"                            @X{.c.u.c.Q.t.;.>.>. .5 % , i ( 6XpXL.( 1X3X].Y.q.q.E.4X4X'.c.u.t.z.E.'.                            ",
"                            >X Xc.0.c.{.s.S k l h 3 O ; y ^ 6XpXL.( 3X4X).g.>.q.!.4X4X`.h.r.0.z.!.[.                            ",
"                            9X+XY.8.9.s.L u r 5 f H F 1 w J 4X8XJ.I.4X4X).g.>.5.!.4X4X~.u.5.a.E.'.4X                            ",
"                            eX:XT.Y n u w 4 : 2 i ( ) F r n c.}.u.T.3X4X).j.q.9.^.3X4X!.a.0.l.).4X3X                            ",
"                            eX:XE.R u , ; ; $ $ y (.-X^ b m u.n.w.Y.4X4X'.c.r.9._.5X4X).s.T.-X3X3X3X                            ",
"                            wX@XW.i.c : $ + . . y ) ].f.7.:.y.b.,.J.2X4X).g.5.9.).4X-X!.l._.6X7X3X/.                            ",
"                            oXD.S.0.c ; . . X X ; F W 6.;.;.<.2.=.k.2X-XU.R D 8.k.L.H.p.f.].7X2X(.~                             ",
"                            m.Z.V.u.S ; @ @ X X . % e =.q.y.B.B.;.k.-X=XL.Q K I Y T R R s._.5X/.( H                             ",
"                              Z.G.B.D 4 < < ; @ + O 5 =.b.F.$X X0.k.-X=X^.d.Y G G U Q p.f._.3X/.(                               ",
"                                  u.m w c U T H y ; 2 @.y.D.>X:Xs.k.2X2X/.L.! U ! I.L.l.s.P.4X                                  ",
"                                    w w L z.W.J.J 1 2 z q.S.#X;Xs.k.2X3X-X).k.p.P.].).J.8.8.                                    ",
"                                    2 w S s. X+X^.H 2 k ;.r.z.k.I k.1X3X].!.T.Y.!.).J.8.7.D                                     ",
"                                    2 w n 8.Y.`._.E r f @.;.7.D V ~ /.-X'.E.Y.E.T.l.6.-.D                                       ",
"                                    w r C U 8.f.k.W H f l $.;.;.@.8.U.).!.z.z.T.f.6.-.-.-.                                      ",
"                                     .N Z H Y 6.0.s.Q b k @.,.<.#.9.T.T.l.9.s.l.l.s.s.8.7.                                      ",
"                                    2.1.-.G L :.<.h.g.P k N >.w.>.r.z.s.9.-.4.f.J.P.P.l.4.                                      ",
"                                    2.<.:.n n M #.<.>. .j j  .5.x.c.8.4.4.8.4.Y H.U.L.~ L                                       ",
"                                    w.w.-.n t s h X.o.] 9 8 a P Y.l.P D 4.s.8.S ^ ( ~ W G                                       ",
"                                    u.r.4.K c d a | } } ] 8 q m Y Y D D 8.l.p.Z G H G G b                                       ",
"                                    r.0.8.L b d p j | X.} | h g x L s.s.l.Y.p.Z Z L U L b                                       ",
"                                    q.5.9.8.L n p a h X.X.} | 8 0 U ~.~.W.T.p.S U ~ k.Q Z                                       ",
"                                    ,.r.j.z.k.Y s p a h } } [ ] 8 P l.~.~.T.p.S ! K.I.W u                                       ",
"                                    y.u.c.W.W.s.M m k 8 ] ] ] ' 9 M Y k.E.T.i.b Q H.~ H w                                       ",
"                                    S.x.j.z.Q.g.>.r.5.| 9 ' ` ' ] j x G Q l.8.v b G c t 4                                       ",
"                                    Q.x.a.8.a.5.>.h.h. .6 6 6 ' [ j d c K R Y d e e e d n                                       ",
"                                    J.k.i.L B M :.h.h.#.9 6 6 ' }  .v b Z Z n p 5 p k D 9.                                      ",
"                                    _ ( L.L.! P -.g.h.#.[ 9 6 ' } $.S b c c d a q j N 7.0.                                      ",
"                                    E _ /.-X).k.9.h.h.>.} ] 9 ] X.=.7.K b x f l  .$.5.0.a.                                      ",
"                                    J E (.4X4X:X~.{.S.w.+.} q j  .q.u.9.P v g  .5.s.l.l.g.                                      ",
"                                    J E ( U.'.#X@X XS.v.&...h k D 0.h.g.4.m k @.a.J.J.l.0.                                      ",
"                                    W T H K 8.j.}..X{.b.1.#.l v T f.c.g.4.m k -.s.J.l.9.=.                                      ",
"                                    s.s.S f k ;.B.{.{.b.1.&.#.I W d.x.j.6.m m 7.8.i.4.:. .                                      ",
"                                    h.g.7.k g  .<.{.{.B.y.<.,.5.W ! s.a.4.V D 4.I m k h h                                       ",
"                                    7.7.D f p 0 N c..XS.h.u.r.5.W J L D D N 7.s.I n p 0 p a                                     ",
"                                    z z k f p 5 v s.{.{.x.h.r.9.k.^ n f k N 7.p.U u e e n S                                     ",
"                                    f f g j a p x s.R.x.x.h.q.0.!.I.Z f k k S U C r r n Y 8.s.W.                                ",
"                                    D D M k k n A Q z.c.c.t.:.9.~.K.S d p p n H c d m I s.s.s.W.@X@X                            ",
"                                    9.5.-.l V Z J W ! l.z.9.D I T.Y.S s 5 5 u G S N ;.0.s.a.s.{..X%X%X.X                        ",
"                                    I 7.N M N L E J ^ L.P.l.P D j.j.-.f e e n -.;.#.$.-.D 4.u.S.}..X.X.X}.}.                    ",
"                                  P.p.8.7.7.P R ^ F H ( U.I.U B 0.r.;.M f d m ;.=.#. .k k 4.x.{..X.X}.}.{.{.                    ",
"                              pXtX4XP.f.s.s.8.! ~ F i ! H.I.T B P 7.;.-.V n V =.#. .h j l s. X:X>X$X{.x.c.c.                    ",
"                          /.].8X8X^.k.s.f.z.s.f.d.A u L i.p.Y B B N $.@.-.I 7.=. .h h h $.j.~.`.~.Q.c.g.s.8.                    ",
"                      tX;XP.f.R.Q.8.7.4.g.x.z.z.f.L n S -.5.:.N v k N $.5.a.t.=. .h h  .;.j.Q.z.9.7.9.s.4.N                     ",
"                    #X>X@X{.b.B.u.,.>.r.j.Q.Q.Y.z.i.L B D :.:.N f v D ;.0.z.s.:.l g k D 8.s.s.5.:.7.f.T.4.g                     ",
"                  #.j.|.}.C.m.b.b.b.h.x.W.~.T.!.'.P.d.K P 8.5.-.v B 4.9.z.E.l.D k d n U / p.4.-.-.8.l.T.7.8                     ",
"                  ] ..%.&.>.q.y.h.S. X>X:X[.P.].7X5X^.Q 8.l.z.s.L L i.l.!._.K.I f u H ^ ) ~ L D 7.9.f.p.N 8                     ",
"                  ` ` ` ' ..7.s.W.#X9XeXtX8X!.).;X[.E.8.9.c.z.c.s.a.s.Y.P.L./ T b c H / ) ( G Y p.s.p.L l 8                     ",
"                  ` ` ` '  .Y K.;X8XeXeXtX9X~.c.h.h.t.5.r.c.x.x.x.c.j.z.f.R J J H b K ~ ) ( W d.J.J.i.V a 7                     ",
"                  ' ' ` ` | Y P.4X8X:XR.{.{.B.b.b.w.<.w.h.{. X X{.x.c.s.8.K Z H A v B L ~ I.U.).!.Y.0.@.g 0                     ",
"                  8 | ..%.;.8.U.4X0XW.X.O.1.2.2.b.b.B.F..X@X$X XR.x.z.8.I v x u c m V N 4.P.;X[.!.z.r.=.N v                     ",
"                   . .t.~.T.s.).5X0X`.} ' o.O.$.r.{.@X,X,X>XR.s.g.c.s.L x r w r x m N D 4.U.-X'.Y.q.>.,.9.8.                    ",
"                  ,.q.R.>X Xj.W.:X8XW.} ` ' | @.i.[.wX>X#X~.0.7.g.s.4.v r : ; < r d m D 8.^.2X).f.;.=.,.s.l.                    ",
"                  n.n.{.>X$XF.F.|.#Xx.} ` ] | N ~ 4X0X`.z.4.@.7.Y.l.N 0 3 > O O : 4 d m R (.3X^.f.:.$.;.s.z.                    ",
"                  y.B.S.W.x.V.n.C.S.t.| ] ] | M d.7XtX!.8.D @.9.T.l.M 7 3 & . + $ - 4 r A ) 1X^.f.:.@.:.0.g.                    ",
"                  :.q.5.Y r.b.m.M.b.>. .$.e.e.7.f.0XtX!.R P 7.a.J.p.l 7 3 & . O # # O ; y _ /.U.f.7.-.-.5.a.                    ",
"                  e d d n 7.y.n.n.b.,.=.j.W. XQ.z.0XtXP.U L i.f.Y N j 7 3 > + $ # + . + < E (.P.l.0.:.@.5.0.                    ",
"                  * % : w n :.q.y.n.y.y.R.+X>X{.h.:X8XU.k.k.K.l.P g q 7 7     % O . . o , F / ~ p.s.5.N                         ",
"                  O $ O $ : e f -.y.n.V.x.W.+X}.m.S. X)._.'.'.T.4.l a a           + o $ : < y G Y a.                            ",
"                  + + o # % - 4 t m ;.r.u.g.Q.S.m.n.S.`.[.[.E.g.q.@.V B               % = > : u                                 ",
"                    . # = = % % % : e m D I 6.y.m.n.S.'.;X'.z.,.>.;.7.8.                                                        ",
"                      * = % O O O # : 5 w t v 5.b.n.S.[.-X_.s.=.=.5.s.f.                                                        ",
"                          % o # $ % % % o ; w m ;.q.z.].2X_.s.@.-.5.g.z.                                                        ",
"                              % * = % o + O * 2 e d T _.-X^.s.-.$.5.s.s.                                                        ",
"                                  = $ . O # $ % = - F ) /.).l.:.@.:.0.a.                                                        ",
"                                      + % = = % # o y _ ) P.l.9.@.:.0.0.                                                        ",
"                                          = = $ o & < F J U i.a.:.@.                                                            ",
"                                              O o % : w w t Y g.                                                                ",
"                                                  - : : : w                                                                     ",
"                                                                                                                                ",
"                                                                                                                                ",
"                                                                                                                                ",
"                                                                                                                                ",
"                                                                                                                                ",
"                                                                                                                                ",
"                                                                                                                                ",
"                                                                                                                                ",
"                                                                                                                                "
};
