/* XPM */
static char *d1fd1b3e6aa84b77fc3b3605d6f699ccXQsVvo0fwNOrv6fM[] = {
/* columns rows colors chars-per-pixel */
"87 64 211 2 ",
"   c None",
".  c #261B0C",
"X  c #2D1D0D",
"o  c #311E0E",
"O  c #301E10",
"+  c #1F3807",
"@  c #2F200F",
"#  c #32210F",
"$  c #203A07",
"%  c #24350A",
"&  c #2C330E",
"*  c #223B08",
"=  c #342411",
"-  c #3A2612",
";  c #362B14",
":  c #3B2B15",
">  c #3D2E19",
",  c #2F3310",
"<  c #263917",
"1  c #293711",
"2  c #333112",
"3  c #3B3116",
"4  c #3E311B",
"5  c #373F15",
"6  c #2F2010",
"7  c #3D3825",
"8  c #432C15",
"9  c #452B14",
"0  c #42331A",
"q  c #4C351A",
"w  c #45391D",
"e  c #4C3A1D",
"r  c #473117",
"t  c #533D1D",
"y  c #583E1E",
"u  c #4A3E21",
"i  c #423726",
"p  c #543E20",
"a  c #463E33",
"s  c #254307",
"d  c #264309",
"f  c #284609",
"g  c #2C4C0A",
"h  c #284706",
"j  c #314E0C",
"k  c #2E510B",
"l  c #2C5305",
"z  c #32530C",
"x  c #335B0C",
"c  c #364C10",
"v  c #3C4A12",
"b  c #395512",
"n  c #274112",
"m  c #37620E",
"M  c #3A650D",
"N  c #3D6C0F",
"B  c #3E6F10",
"V  c #3F7110",
"C  c #3E720F",
"Z  c #3E4638",
"A  c #3D4536",
"S  c #424916",
"D  c #4A4A1A",
"F  c #4B481A",
"G  c #54441E",
"H  c #52471D",
"J  c #435118",
"K  c #416D0E",
"L  c #42730F",
"P  c #427310",
"I  c #457C11",
"U  c #4A7910",
"Y  c #477716",
"T  c #4C4122",
"R  c #524524",
"E  c #5B4523",
"W  c #5D4925",
"Q  c #5A5426",
"!  c #49443C",
"~  c #425F30",
"^  c #624A25",
"/  c #65542C",
"(  c #69552C",
")  c #6B592D",
"_  c #665A2B",
"`  c #6D5B31",
"'  c #705E35",
"]  c #6F6033",
"[  c #4D4A45",
"{  c #4E4E4D",
"}  c #4B4743",
"|  c #50544D",
" . c #4F4F50",
".. c #504F51",
"X. c #545454",
"o. c #5B5C5B",
"O. c #585858",
"+. c #50504D",
"@. c #5F605F",
"#. c #615F61",
"$. c #646464",
"%. c #69696A",
"&. c #787A78",
"*. c #458201",
"=. c #4A890C",
"-. c #498412",
";. c #4D8C13",
":. c #4A8319",
">. c #4F9113",
",. c #529415",
"<. c #569B16",
"1. c #589E17",
"2. c #57991B",
"3. c #50940B",
"4. c #5BA317",
"5. c #5CA518",
"6. c #5EA918",
"7. c #5DA817",
"8. c #63AC17",
"9. c #62AD19",
"0. c #66A91E",
"q. c #65B219",
"w. c #6AB618",
"e. c #6DB919",
"r. c #69B517",
"t. c #73BD1A",
"y. c #71B81C",
"u. c #54892B",
"i. c #598A38",
"p. c #528929",
"a. c #75BE25",
"s. c #6EB523",
"d. c #77C01B",
"f. c #7BC31D",
"g. c #7CC422",
"h. c #7DC32D",
"j. c #7DC431",
"k. c #5D8940",
"l. c #648D48",
"z. c #6E9354",
"x. c #6A9153",
"c. c #7B996B",
"v. c #80C722",
"b. c #83CA25",
"n. c #85CB2A",
"m. c #89CF2D",
"M. c #80C429",
"N. c #8CD02F",
"B. c #89CE32",
"V. c #87CB37",
"C. c #8DD232",
"Z. c #8ED33B",
"A. c #91D53B",
"S. c #92D63B",
"D. c #869D79",
"F. c #809F6C",
"G. c #8BA37A",
"H. c #9BDD4D",
"J. c #95D747",
"K. c #9CDE53",
"L. c #9FE051",
"P. c #A0E156",
"I. c #878787",
"U. c #989998",
"Y. c #92A784",
"T. c #9FAE98",
"R. c #A2AE9B",
"E. c #A7B79D",
"W. c #A19CA1",
"Q. c #9FA1A0",
"!. c #A3A4A4",
"~. c #ACABAB",
"^. c #A8A8A6",
"/. c #B0AFAE",
"(. c #ACB4A6",
"). c #B3B8AF",
"_. c #AFAFB0",
"`. c #B4B4B4",
"'. c #B9B7B9",
"]. c #BBBBBC",
"[. c #B7B8B7",
"{. c #AEB3B1",
"}. c #B9C0B6",
"|. c #C3CABE",
" X c #BDBEC0",
".X c #C0BFC1",
"XX c #BFC3C1",
"oX c #C4C4C4",
"OX c #C6C9C9",
"+X c #CBCCCC",
"@X c #C9CAC7",
"#X c #D0CFCE",
"$X c #D2D3CE",
"%X c #D1CFD2",
"&X c #D3D3D3",
"*X c #DBDBDC",
"=X c #D8D8D9",
"-X c #CCD0CE",
";X c #DDDEE1",
":X c #E0DDE1",
">X c #E4E4E4",
",X c #E8E6E7",
"<X c #ECEBEC",
"1X c #E8E8E9",
"2X c #EDEEF0",
"3X c #F1EFF0",
"4X c #EFF0F1",
"5X c #F3F2F2",
"6X c #FCFBFC",
"7X c #F9F6F8",
"8X c #F3F0EF",
/* pixels */
"                                                                                                                ^././.~.                                                      ",
"                                                                                                              U.!.~.~.!.!.                                                    ",
"                                                                                                          !.!.!.^.~.^.!.!.!.W.                                                ",
"                                                                                                      ].'.[.[.'.].'.[.`.`.^.!.!.!.                                            ",
"                                                                                                  oX@X&X=X&X&X=X*X%X%X#XOX].'.'.~.^.~.                                        ",
"                                                                                              `.].+X=X>X<X4X4X2X2X,X>X>X:X*X&X+XoX].'.[.'.                                    ",
"                                                                                          /.`.[.oX=X>X4X7X6X6X6X7X5X8X<X<X<X,X*X=X&X+X.X X].'.                                ",
"                                                                                      z.G.(.[.oX+X=X1X7X6X6X6X6X6X7X5X<X<X<X<X1X1X;X=X%X+XoX'.[.`.                            ",
"                                                                                  7.1.u.l.c.Y.).+X&X>X5X6X6X6X6X6X7X5X5X<X<X<X<X<X1X>X>X=X+XOXoX'.`.`.                        ",
"                                                                              w.q.9.5.<.3.,.x.D.T.).$X>X<X7X6X6X6X7X7X5X5X<X<X<X<X<X<X1X>X;X=X&XoX].'.`./.                    ",
"                                                                          t.t.e.w.q.q.8.9.1.;.-.i.G.(.|.$X<X5X7X7X7X5X5X5X2X2X2X<X<X<X1X1X1X>X*X&X+X].`._.~.~.                ",
"                                                                      t.t.t.d.f.g.a.a.t.t.9.5.4.2.u.k.c.E.-X*X>X<X3X3X5X5X5X4X2X2X<X<X<X<X<X1X>X;X&XoX'.`._.~.~.~.            ",
"                                                                  5.9.q.e.t.g.B.A.Z.Z.B.g.t.w.8.4.<.3.u.z.G.E.|.*X>X1X<X5X5X5X5X3X2X2X<X<X<X1X>X*X&X@XoX].`.`.'.[.`.`.        ",
"                                                              4.5.8.8.q.w.t.g.S.L.L.H.J.Z.B.g.w.9.7.1.;.*.*.x.Y.(.|.=X>X1X<X5X5X5X<X<X<X<X1X1X,X*X&X$X#X+XoXoXoXoXoX].'.'.    ",
"                                                          9.9.9.8.w.t.a.t.t.g.V.H.K.P.K.H.J.B.t.w.8.5.<.,.;.:.:.k.G.}.+X&X>X1X<X<X<X1X,X>X,X,X>X*X=X&X&X%X&X&X+X+X+XoX'.`.~.W.",
"                                                      q.q.q.e.t.f.v.B.B.m.n.g.g.h.V.J.P.P.H.B.g.f.e.q.9.5.,.;.=.:.i.x.F.E.@X&X&X;X:X:X*X*X*X*X;X*X=X&X-XOXOXOXOXoX.X'./.U.&.#.",
"                                                  q.q.w.e.t.f.n.C.S.S.C.N.n.g.d.t.t.j.V.J.K.K.J.B.t.e.w.8.5.4.1.>.=.*.p.z.G.R.[.+X%X&X=X*X=X*X=X=X&X+XXX].].'.'.'.^.U.I.%.O.{ ",
"                                              9.q.w.w.t.g.n.m.Z.S.S.S.C.n.b.f.d.e.e.w.e.h.J.K.K.J.V.h.t.w.w.q.9.4.<.,.-.*.*.l.D.R.).oX&X&X=X=X=X&X+XoX'.`.{.~.Q.U.I.%.X.....{ ",
"                                          7.7.9.w.t.f.g.m.S.S.S.S.C.C.n.v.f.f.t.w.w.w.e.e.t.a.V.J.H.Z.n.g.t.e.w.q.8.4.<.,.;.:.p.i.D.(.}.@X&X*X=X#XoX].'.~.!.U.&.$.X.X.X.X.X. .",
"                                      4.4.9.q.e.t.g.m.C.S.S.C.C.C.n.v.f.f.t.e.w.w.w.w.w.w.w.w.s.a.j.V.S.Z.n.g.t.t.e.w.q.8.1.,.>.;.i.x.c.E.|.$X$X+X X[./.U.&.%.@.O.o.$.o.O.X.{ ",
"                                  7.7.7.7.9.w.t.f.b.m.C.C.C.n.b.v.f.t.t.t.e.w.w.w.w.w.w.w.w.w.r.q.w.a.j.V.C.C.n.g.t.t.t.w.9.5.1.>.=.*.p.c.Y.E.).].~.U.I.&.$.O.o.$.$.$.o.O.X.{ ",
"                                q.9.9.q.q.w.e.f.v.n.b.b.b.b.g.d.t.t.w.w.w.w.w.w.w.w.w.w.w.w.w.w.w.q.q.q.s.h.V.V.n.g.f.f.t.e.q.7.,.>.,.;.=.=.l.D.U.I.%.o.o.@.$.$.$.$.$.o.O.X. .",
"                          q.r.r.w.e.t.t.t.f.f.v.v.v.v.f.f.d.t.e.w.q.q.w.w.w.w.w.w.w.w.w.w.w.w.w.w.r.r.q.9.4.4.s.M.n.b.v.f.t.e.9.4.1.<.,.;.-.Y ~ | X.O.o.$.%.%.%.$.$.$.o.X.X.{ ",
"                      9.q.q.w.e.t.f.b.n.n.n.n.n.b.v.f.f.t.e.w.q.q.q.q.w.w.w.w.w.w.e.e.w.w.w.w.w.w.w.q.9.9.5.1.2.0.0.g.b.v.t.e.q.9.4.,.;.I M l n A +.O.$.%.%.%.$.$.$.O.X.X.{ ! ",
"                  7.7.9.r.w.t.g.n.m.C.C.C.N.m.n.b.f.d.t.e.w.q.q.q.q.w.w.w.w.w.w.w.w.w.e.e.e.w.w.q.q.9.9.9.9.5.4.4.5.0.y.y.w.q.9.7.<.-.V m k s < Z ..O.$.$.$.$.$.$.O...[ ! a i ",
"                9.9.9.q.t.d.g.m.C.C.C.C.C.m.n.b.g.f.t.w.w.r.w.w.w.w.w.w.e.w.w.w.w.w.w.w.e.w.w.q.9.7.7.9.9.9.9.9.9.5.1.1.4.8.5.<.,.-.N g g g s < Z +.O.o.$.$.$.o.X.+.} a i 3 3 ",
"          q.q.q.w.w.e.t.g.n.m.C.C.C.N.m.n.v.v.f.t.e.e.w.q.q.w.w.w.w.w.w.e.w.w.w.w.w.w.w.w.q.9.9.9.9.9.9.q.q.q.9.7.4.4.4.1.<.;.V x x z g g g s < Z { X.O.o.o.O.X.[ a i 4 3 3 3 ",
"      7.9.9.q.w.e.g.n.m.B.C.C.C.N.n.b.b.v.f.d.t.e.w.w.w.w.w.w.w.w.w.w.w.w.w.w.w.w.w.w.r.q.q.9.9.9.9.9.9.q.9.9.7.7.7.7.4.-.C x k g z z g g g s < Z { X.X.O.X.[ ! i 4 : : > 3 0 ",
"    7.7.7.9.q.e.d.b.m.C.C.C.N.n.b.v.f.f.f.t.t.t.e.w.w.w.w.w.w.w.w.w.w.w.w.w.w.w.w.w.q.q.q.q.q.9.9.9.9.9.7.7.7.7.5.1.,.-.M g d f b z z k g g h < Z { { [ [ ! i > - = = : > 0 w ",
";.,.4.4.7.7.9.e.g.b.n.N.C.N.n.v.g.f.d.d.t.t.t.e.e.w.w.w.w.w.w.w.w.w.r.w.w.w.w.r.q.q.q.q.9.9.q.9.9.7.7.5.4.4.4.1.,.I m g g d d j b b z g g g s < A [ } a 7 > > : = X X ; 0 w w ",
"P P -.,.4.7.9.q.e.t.g.n.m.m.m.C.m.b.d.t.t.e.e.w.w.r.w.w.e.w.w.w.w.w.q.w.w.q.9.q.q.9.9.q.9.9.9.7.4.1.4.5.5.4.,.I m x g g g d d g z z g g d * + 1 7 i i 4 : = = # # X X : 0 e u ",
"N N V I -.,.4.9.9.w.t.g.b.B.A.S.C.b.f.t.e.w.w.w.w.w.w.w.e.w.w.w.r.q.q.q.q.9.9.9.9.9.9.9.9.9.5.4.1.4.4.1.;.I M x g g g g g d d g z g d * $ % & 2 4 > - = = # # : 8 - # : 0 e T ",
"N N N N N I ;.,.4.9.w.e.g.n.B.C.m.v.d.t.w.r.r.w.w.w.w.w.w.w.r.q.q.q.9.9.9.9.9.9.9.9.9.9.9.7.4.4.4.<.,.-.M g g g g g g g g d * d g d $ % & 2 2 > : = = X o - : r r : = : 0 w T ",
"N N L L N N B P ;.<.5.8.w.e.t.g.b.g.t.t.e.e.e.e.w.w.w.w.r.q.q.q.q.9.6.9.9.9.9.9.9.9.9.9.9.9.4.1.,.-.M k g g g g g g g g g * + $ $ % & 2 3 > > - # X X o - 8 r 0 r - = : 0 w u ",
"N N L L P P B N V I -.1.9.9.q.e.e.t.t.t.t.t.t.e.e.e.w.w.q.q.q.q.q.9.9.9.9.q.q.q.9.9.9.9.7.4.,.I M x k g g g g g g g g g d $ + % & 2 3 3 > = = # X X     9 8 8 8 8 - 6 : 0 w u ",
"M N P P P P P L N N P -.;.,.4.9.9.w.e.t.t.t.t.t.t.e.w.w.q.q.q.q.q.q.q.q.9.9.q.q.9.9.9.4.,.-.N x g g g g k g g g g g d * $ % & 2 3 3 : = = = X X             : : : = X ; 3     ",
"x m N L U U P L L L N N V I ;.<.4.9.q.q.w.t.t.t.t.t.e.w.q.q.q.q.q.w.w.q.9.9.9.9.9.4.<.-.N k g g g g g g g g g g f * $ % & & 3 > : ; = X X X                   : : # X ;       ",
"z z x M L U U U L L L L V V P I ;.1.5.9.q.q.w.e.t.t.t.e.w.w.w.w.w.q.9.7.5.7.7.5.1.-.M k k g g g g g g g g g d * $ % % & ; : > : = X X X                                       ",
"Q J j z x K P U U U P L P V B P P I -.<.5.9.9.w.w.e.e.e.e.w.r.q.9.9.7.4.1.4.,.I M x k g g g g g g g g g d * $ $ % 2 ; ; - = = # X X                                           ",
"_ Q D S j z M N P U U U P P K V B B P -.;.,.4.9.8.q.q.q.q.8.9.7.7.7.7.<.-.I N x g g g g g g g g g f d * $ % & 2 2 : : = # X X X                                               ",
"` / W H S v j k M K L U U P P P B B B B V I >.<.4.7.9.7.7.7.4.4.4.4.<.-.M g g g g g g g g g g g f * $ % & & 3 > : ; = X X X                                                   ",
"' / W E G G D c j z x K L U P P V B B B B V P I ;.1.5.5.7.5.4.4.<.-.m k g g g g k k z k g g d * $ % % 2 3 3 > : = o X X                                                       ",
"` / W t t t E H F v j x x M L P P L L B B B B N P I ;.<.5.5.,.I M x g g g g g z z z z g d * + % % ; ; : > = = # X X                                                           ",
"` / E t r q t p E H F v j z m M N L L L V P P L N N P -.;.-.P x f g g g g z z z z j g d + % & , ; : : = = O X X X                                                             ",
"` ( ^ t 0 8 8 r t E E G S v j k x N K L P P P L L L V V M k g g g g k z z z z j g d $ % % & 3 : : = = X . X X                                                                 ",
"` ( ^ y r 9 9 8 8 r t y G H F c z z x M N B B P L L L V m k g g k z z z z z g * $ % % 2 3 > > - # # X .                                                                       ",
"] ( W p 8 - - - : 8 r r q t G H D v g z x m M B V L L B m k g g z z z j g d * % % 2 ; : : = = @ X X                                                                           ",
"` / W p 8 - = = = - - 9 8 q t t G H S v j k x m M N L L M k g g z j g f * % & , 2 : : ; = X . X X                                                                             ",
") / E t > # @ = @ X o 9 9 9 8 8 e G G F S c z k x M L L M k g g g d $ % % , 3 > : : = X . . .                                                                                 ",
") ^ E e : # X X X X         : - : 0 q G H H D c k x x N M k d * $ $ % 2 3 > > : = o X X                                                                                       ",
"    G q : # X X                 = : 8 q e t G H D v j x k d * $ % 2 2 3 > - = = X X                                                                                           ",
"        - # X                     - 8 9 8 q t E G H S v c * 1 , 2 : : : = # X X X                                                                                             ",
"                                        9 8 8 q t E W Q D 5 w 0 > : = o X X X                                                                                                 ",
"                                            8 8 r t W _ Q T w 0 : = o o                                                                                                       ",
"                                              8 8 q W ) / R u 0 = X X                                                                                                         ",
"                                              9 8 q E ) / R u 0 - o                                                                                                           ",
"                                              8 8 q E ) / R u 0 - X                                                                                                           ",
"                                              8 8 q E ( / R u 0 - .                                                                                                           ",
"                                              8 8 q E ( / R u 0 ; .                                                                                                           ",
"                                              : 8 q E ) / R T 0 = .                                                                                                           ",
"                                                > q E ` / R u 0 = .                                                                                                           ",
"                                                8 e W ( / R u 0 = .                                                                                                           ",
"                                                    W ) / R u 0                                                                                                               ",
"                                                        Q R                                                                                                                   "
};
