/* XPM */
static char *e6351c413dd64c36994c88b8df21bd94Ohdeeta4t7XXPsmg[] = {
/* columns rows colors chars-per-pixel */
"64 64 140 2 ",
"   c #3D631E",
".  c #3F691F",
"X  c #3E6420",
"o  c #3F6921",
"O  c #41651F",
"+  c #42691F",
"@  c #426520",
"#  c #436B22",
"$  c #496D23",
"%  c #457224",
"&  c #4A7425",
"*  c #477925",
"=  c #4C7A25",
"-  c #4C7628",
";  c #4C7C28",
":  c #517D26",
">  c #507728",
",  c #527C29",
"<  c #4E8327",
"1  c #4E8327",
"2  c #4F8229",
"3  c #4E8529",
"4  c #4E852A",
"5  c #4D832A",
"6  c #4F8B29",
"7  c #538127",
"8  c #538226",
"9  c #508229",
"0  c #518229",
"q  c #51812A",
"w  c #51812B",
"e  c #548029",
"r  c #558029",
"t  c #548129",
"y  c #558129",
"u  c #548228",
"i  c #55812A",
"p  c #54812B",
"a  c #54822A",
"s  c #54832B",
"d  c #55832B",
"f  c #518428",
"g  c #538428",
"h  c #528429",
"j  c #538429",
"k  c #528529",
"l  c #538629",
"z  c #53842B",
"x  c #53852B",
"c  c #53862A",
"v  c #53862B",
"b  c #52872B",
"n  c #50832C",
"m  c #51832C",
"M  c #53842C",
"N  c #53852C",
"B  c #50872C",
"V  c #54842A",
"C  c #58842B",
"Z  c #59862B",
"A  c #59872C",
"S  c #5A862C",
"D  c #5A872C",
"F  c #59862B",
"G  c #518A29",
"H  c #508B29",
"J  c #52892B",
"K  c #53892B",
"L  c #528B2A",
"P  c #538B2A",
"I  c #558829",
"U  c #578B29",
"Y  c #55882B",
"T  c #54892B",
"R  c #548B2A",
"E  c #558A2B",
"W  c #558B2B",
"Q  c #568B2B",
"!  c #548C29",
"~  c #548C2A",
"^  c #568C2A",
"/  c #578D2A",
"(  c #578D2B",
")  c #578E2A",
"_  c #53882C",
"`  c #52892C",
"'  c #53892C",
"]  c #53882D",
"[  c #53882E",
"{  c #578A2E",
"}  c #558B2C",
"|  c #5A8929",
" . c #598A29",
".. c #5B8B28",
"X. c #5A8B29",
"o. c #598B2A",
"O. c #5B8A2A",
"+. c #5A8B2A",
"@. c #598D29",
"#. c #5A8D29",
"$. c #588C2A",
"%. c #588D2A",
"&. c #598D2A",
"*. c #588C2B",
"=. c #598C2B",
"-. c #598D2B",
";. c #5A8E2A",
":. c #5E8E2A",
">. c #5E8E2B",
",. c #588A2E",
"<. c #598A2E",
"1. c #5A8B2F",
"2. c #598F2D",
"3. c #5A8F2C",
"4. c #5E8F2C",
"5. c #5F8F2C",
"6. c #5F8F2D",
"7. c #5F8E2E",
"8. c #5B8C2B",
"9. c #57942D",
"0. c #57942D",
"q. c #5D902B",
"w. c #5E902B",
"e. c #5B902D",
"r. c #5B902E",
"t. c #5C902D",
"y. c #5C902E",
"u. c #5F912E",
"i. c #5E922F",
"p. c #5B912D",
"a. c #5B8D30",
"s. c #5D9131",
"d. c #5E9131",
"f. c #5D9231",
"g. c #5E9230",
"h. c #5F9330",
"j. c #5E9231",
"k. c #5F9331",
"l. c #5E9230",
"z. c #61942E",
/* pixels */
"C C C C & & & & z z z z , , , , - - - - & & - & $.$.o.$.        % % % % _ K K K B z B B - - - - T T o.o.+ + + + y.y.y.y.$ $ $ $ ",
"C C C C & & & & z z z z , , , , - - - - & - - & $.$.$.$.        % % % % K K K K z B z B - - - - T T o.o.+ + . . y.y.y.y.$ $ $ $ ",
"C C C C % & & & z z z z , , , , - - - - & - - & $.$.o.$.        % % % % K K _ K B z B B - - - - T T T o.. . . . y.y.y.y.$ $ $ $ ",
"C C C C % & & & z z z z , , , , > - - - & - & & $.o.o.$.        % % % % _ K _ K B B B B - - - - T T T o.. . . . y.y.y.y.$ $ $ $ ",
"* * * * q q q q q.q.q.q.      X & & & & u u z z ; ; ; ; , , , , = = - - _ _ _ _ <.<.Y <.& & & & y.y.y.y.X X X X & - - & d d d d ",
"* * * * q q q q 4.4.q.q.        & & & & d u z q ; ; ; ; , , , , - - = = _ _ _ _ <.<.<.Y & & & & y.y.y.y.X o X X & - & & d d d d ",
"* * * * q q q q 4.4.4.4.      X & & & & d u d d ; ; ; ; > , , , - = = - _ _ _ _ <.<.<.Y & & & & y.y.y.y.o o X X & - - & d u d d ",
"* * * * q q q q 4.4.4.4.    X X & & & & u u u u 2 2 ; ; > , , , - - - = _ _ _ _ <.<.<.<.& & & & z.z.y.y.o X X X & & & & u u d d ",
"& & & & # # # # B B B B K K K P @ @ @ @         1.1.<.<.$ % $ $ o.o.o.o.d d d d w w w w , , , , r.r.1.1.4.4.4.4.        : : , : ",
"& & & & # # # # B B B B K K K K @ @ @ @ O       <.<.<.<.$ $ % $ o.o.o.o.d d d d w w w w , , , , r.r.1.1.4.4.4.4.        : : , : ",
"& & & & # # # # B B B B K K K K @ @ @ @   O     <.<.<.<.$ % % $ $.o.o.o.d d d d w w w w , , , , 1.1.1.1.4.4.4.4.        7 7 7 7 ",
"& & & & # # # # B B B B K K K K @ @ @ @ O       <.<.<.<.% $ $ $ o.o.$.o.d d d d w w w w , , , , 1.1.1.1.4.4.4.4.        7 7 q q ",
"_ K _ K * * * * & & % % z z z z & & & & & & & & O @ X   2 q 2 2 O O O O X X X X & & & & ) ) T K P P P P , , ; , 4.4.4.4.@ @ @ # ",
"K K K K * * * * & & & & z z z z & & & & & & & &     O O q 2 q q O O O + X X X X & & & & T ) T K P P P P , , , ; 4.4.4.4.@ @ @ @ ",
"K _ K _ * * * * & & & & z z z z & & & & & & & &   O   O q q 2 2 O O + + X X X X & & & & ) ) ) ) P P P P ; , , ; 4.4.4.4.@ @ @ @ ",
"T K T K * * * * & & & & z q z d & & & & & & & &   @   O q q q 2 O O O O X X X X & & & & T ) ) ) P P P P , , , , 4.4.4.4.@ @ @ @ ",
"# # # # % % $ $ $ $ $ $ $.$.$.$.o.o.o.o.T T T T K K K K & & & & y.y.y.y.d d d d g.g.g.g.% % % % ) ) ) ) $ % $ $ g.g.g.g.* * * * ",
"# # # # % $ $ $ $ $ $ $ $.$.$.$.o.o.o.o.T T T T K K K K & & & & y.y.y.y.d d d d y.y.g.y.% % % % ) ) $.) # % % $ g.g.g.g.* * * * ",
"# # # # % % $ $ $ $ $ $ $.$.$.$.o.o.o.o.T Y T T K K K 6 & & & & y.y.y.y.d d d d g.g.g.g.% % % % ) ) ) ) $ % % # g.g.g.g.* = * * ",
"# # # # % % $ $ $ $ $ $ $.$.$.$.o.o.o.o.T Y T Y K 6 K K & & & & y.y.y.4.d d d d g.y.g.g.% % % % ) ) ) $.% # $ # g.g.g.g.= = * * ",
": : : : & & & & @ @ @ O % % % % T T T T * * * * X X X X 3 3 3 3 A A A A O O @ @ z z K K ) ) ) ) & & & & f f f f ; ; ; ; - & - & ",
": : : : & & & & @ @ @ O % % % % T T T T * * & * X X X X 3 3 3 3 A A A C O @ @ @ z z K K ) ) ) ) & & & & f f f f ; ; ; ; & & - - ",
": : : : & & & & O @ @ @ % % % % T T T T * & & * X X @ X 3 3 3 3 C A <.<.O O @ @ z z z z ) ) ) ) & & & & f f f f = = ; ; - - & & ",
": : : : & & & & @ @ @ @ % % % % T T T T & * & * X X X X 3 3 3 3 <.<.<.<.+ O @ @ z z z z ) ) ) ) & & & & f f f f = ; ; ; - - & - ",
"9.9.9.9.& & & & & * * * # # # o > > > > 7 7 7 7 $.$.$.$.l l l l % % % % o o o o 1 1 1 1 + + + + # # # # & & & & @ @ @ @ + + # # ",
"9.9.9.9.& & & & & & * * # # # # > > > > 7 7 7 7 $.$.$.$.l l l l % % % % o o o o 1 1 1 1 + + + + # # # # & & & & @ @ @ @ # # # + ",
"9.9.9.9.& & & & & & & & # # # # > > > > 7 7 7 7 $.$.$.$.z z l l % % % % o o o o < < 1 1 # # + + # # # # % % & & @ @ @ @ + + # @ ",
"9.9.9.9.& & & & & & & & # # # # > > > > 7 7 7 7 $.$.$.$.z l l l % % % % o o o o < < 1 1 # # + + # # # # % % & & @ @ @ @ + + # + ",
"& & & & 5 5 5 5 & & & % ; ; ; ; @ @ @ @ 4.4.$.4.z.z.z.z.A A <.<.# $ # # 7 7 7 7 % & & % d d d d * * * * } 2.2.2.# # # $ $ $ $ $ ",
"& & & & 5 2 5 5 & & & & ; ; ; ; @ @ @ @ $.4.4.$.z.z.z.z.A <.A A # $ $ $ 7 7 7 7 & & & % d d d d * * * * } 2.2.2.# # $ $ $ $ $ $ ",
"& & & & 5 5 5 5 & & & & ; ; ; ; @ @ @ @ 4.4.4.$.z.z.z.z.A C <.<.$ # $ # 7 7 7 7 & & % & d d d d * * * * 2.2.2.2.# # # # $ $ $ $ ",
"& & & & 5 2 5 5 & & & & , ; ; ; @ @ @ @ 4.4.$.$.z.z.z.z.<.A <.A # # # # 7 7 7 7 & % % & d d d d * * * * 2.2.2.2.# # # # # $ $ $ ",
"X X X X ; ; ; ; 2.2.{ { K z K K ) ) ) ) l l d d y.y.y.y.- - - - & & & & * * * = # X X X g.g.g.g.K K K K O O O O C C C C : 7 q q ",
"X X X   ; ; ; ; 2.2.2.2.z z K z ) ) ) ) l l d d y.y.y.y.- - - - & & & & * * * * # # X X g.g.g.g.K K K K O O O O C o.o.o.: q 7 q ",
"        ; ; ; ; 2.2.2.2.K K K K ) ) ) ) l l l l y.y.y.y.- - - - & & & & * * * * X X o X g.g.g.g.K K K K O O O O o.o.o.o.q q q , ",
"X   X   ; ; ; ; 2.2.2.2.K z z z ) ) ) ) l l l l q.y.y.y.- - - - % & & & * * * * o o o X g.g.g.g.K K K T O O O O D o.o.o.q q q q ",
"& & & $ C C C C         ) ) ) ) z 3 3 K $.4.4.$.l l l l Y Y 2.Y * * = = # # # # 2 2 2 2 @ @ O @ . O   O l l l l & & & & & & - - ",
"& & $ $ C C C C         ) ) ) ) z 3 K K 4.4.4.4.l l l l Y Y Y Y * * = = # # # # 2 2 2 2 @ @ @ @ .   .   l l l l & & & & & & - - ",
"& & & $ C C C C         ) ) ) ) 3 z z z 4.$.4.$.l l l l Y 2.2.Y * * * = # # # # 2 2 2 2 @ @ @ @         l l l l & & & & & & & - ",
"& & & & C C C C         ) ) ) ) z 3 z 3 $.$.4.4.l l l l 2.Y Y 2.* * = = # # # # 2 2 2 2 @ @ @ @         l l l l & & & & & & - - ",
"T o.T T : : : : ; ; ; ; l l l l o o o o C C C C ; ; ; ; a.a.a.7.$.$.$.$.K K K K # # # # <.<.<.<.z z z z X X X X ; ; ; ; $ $ $ $ ",
"T o.T T : : : : ; ; ; ; l l T T o o o o C C C C ; ; ; ; a.a.7.a.$.$.$.$.K K K K # # # # <.<.<.<.z z z z X X X X = ; ; ; $ $ $ $ ",
"T T o.o.: : : : ; ; ; ; T T T l o o o o C C C C ; ; ; ; a.a.a.7.$.$.$.$.l l K K # # # # <.<.<.<.z z z z X X X X ; = ; ; $ $ $ $ ",
" .T o.o.: : : : ; ; ; ; Y T T T o o o o C C C C < ; ; ; a.7.7.a.$.$.$.$.l l K K # # # # <.<.<.<.z z z z X X X X = ; ; ; $ $ $ $ ",
"+ + + + # # o o $.$.1.1.7 7 7 7   O O   $ $ $ $ o.o.o.o.= = = = ; ; ; ; O O   O = = = = O O O O _ _ B 4 ; ; ; ; : : : : - - - - ",
"+ + + + # # o o $.1.1.1.7 7 7 7   O O O $ $ $ $ o.o.o.o.= = = = ; ; ; ; O O O O = = = ; O O O O _ _ B 4 ; ; ; ; : : : : - - - - ",
"# # + + o o . . $.$.1.1.7 7 7 7 O O   O $ $ $ $ o.o.o.o.= = = = ; - ; ;   O O O = = ; = O O O O _ _ _ _ ; ; ; ; : : : : - - - - ",
"# # + # . o . . $.$.1.1.< 7 7 7   O     $ $ $ $ o.o.o.o.= = = = - ; ; ; O O     ; * = = + O O O _ _ _ _ < ; ; ; : : : : - - - - ",
"* * & & & & & & # # @ @ 3 2 3 3 ; ; ; ; u u u u w w w w         # # % . % % % % # # # X [ [ [ Y : : : 7 # # # #         2 2 2 2 ",
"* * & * & & & & # # @ @ 3 2 3 3 ; ; ; ; u u u u w w w w         # # % % % % % % # # @ @ [ [ [ [ : : : : # # # +         2 2 2 2 ",
"* * * * & & & & # # # # 3 3 3 3 ; ; ; ; u u u u w w w w         # # % % & & % % # # # # [ [ [ Y : : , : # + # #         2 2 2 2 ",
"* * * * & & & & # # # # 3 3 3 3 ; ; ; ; u u u u w w w w         # # % % & & % % # # # # [ [ [ Y : , , : # # # #         2 2 2 2 ",
"<.<.<.<.d d d d         B B z B g g g g } } } } $ $ $ $ K K K K ; ; ; ; # # # # C A C C = = = = & & * * _ _ _ _ # # # # = = = ; ",
"<.<.<.<.d d d d         B B B z g g g g } } } } $ $ $ $ K K K T = ; ; ; # # # # C C C C = = = = & & * * _ _ _ _ # # # # = = = = ",
"<.<.<.<.d d d d         z B z B g g g g } } } } $ $ $ $ K K K K ; : = = + # # # C C C C = = = = & & * * _ _ _ _ @ @ @ # = = = = ",
"<.<.<.<.d d d d         B B B B g g g g } } } } $ $ $ $ K K K T ; ; ; = # # + + C C C C = = = = & & * * _ _ _ _ @ @ # @ = = = = ",
"  O     5.5.5.4.# # # # $ $ $ $ + + + + * * * = s.s.s.s.r.r.r.r.u u u u % % & & O O @ @ , , , , % % % % ) o.o.$._ _ _ _ 2.2.2.2.",
"O @ O @ 5.5.5.5.# # # # $ $ $ $ + + + + * * * * s.s.s.s.r.r.r.r.u u u u % % & & O @ @ @ , , , , % % % % ) o.) o._ _ _ _ 2.2.2.2.",
"  O     5.5.5.5.# # # # $ $ $ $ + @ + + * * * * a.a.s.s.r.r.r.r.u u u u % % & % O O O O , , q q % % % % $.o.) $._ _ _ _ 2.2.2.2.",
"@   O   5.5.5.5.# # # # $ $ $ $ + + + + * * * * a.a.a.a.r.r.r.r.d u u u % % % % O @ @ O q q q q % % % % $.$.$.) _ _ _ _ 2.2.2.2.",
"y.y.y.y.= = = - & & & & # # # $ 1.r.1.r.2.2.2.2.; ; ; ; = = = = r.r.r.e.        - - - - $.$.) ) = * = = = = = = & & & & & & & & ",
"y.y.y.y.= = = = & & & & # # # # 1.1.1.1.2.2.2.2.; ; ; ; = = = = r.r.r.r.        - - - - $.$.) ) = = = = = = = = & & & & & & & & ",
"y.y.y.y.= = = = & & & & # # # # r.1.1.1.2.2.2.2.; ; ; ; = = = = r.r.r.r.        - - - - $.$.$.) * = = = = = = = & & & & & & & & ",
"y.y.y.y.= = = = & & & & # # # @ 1.1.1.1.2.2.2.2.; ; ; ; = = = = r.r.r.r.        - - - - $.$.$.e.= = = = = = = = & & & & & & & & "
};
