/* XPM */
static char *_7d2655503e549b6a5549399e105110dyrkgIUmyHJvIku9Y[] = {
/* columns rows colors chars-per-pixel */
"64 64 147 2 ",
"   c None",
".  c #030200",
"X  c #0B0602",
"o  c #0E0903",
"O  c #120C05",
"+  c #120E08",
"@  c #1A1107",
"#  c #16110C",
"$  c #1A130C",
"%  c #1B1511",
"&  c #221408",
"*  c #2B211F",
"=  c #302117",
"-  c #3E2313",
";  c #34231D",
":  c #38241D",
">  c #272324",
",  c #2C2423",
"<  c #352521",
"1  c #462916",
"2  c #4C2C15",
"3  c #442B19",
"4  c #4A2C19",
"5  c #4D311D",
"6  c #52331E",
"7  c #503422",
"8  c #593C26",
"9  c #5A3D2F",
"0  c #6E482E",
"q  c #614433",
"w  c #79543C",
"e  c #6D6B69",
"r  c #706E6D",
"t  c #8A4C26",
"y  c #864B2A",
"u  c #8A4E2D",
"i  c #8C502D",
"p  c #874E30",
"a  c #8C5131",
"s  c #8E5A39",
"d  c #925532",
"f  c #9A5C36",
"g  c #905C3B",
"h  c #9D5E38",
"j  c #96603C",
"k  c #9F613A",
"l  c #A1643C",
"z  c #A2643C",
"x  c #A2643D",
"c  c #A3643D",
"v  c #A3653D",
"b  c #A3653E",
"n  c #A3653F",
"m  c #A4653E",
"M  c #A4663F",
"N  c #A5663F",
"B  c #A5673F",
"V  c #A2633C",
"C  c #9A7455",
"Z  c #9A7658",
"A  c #9A795B",
"S  c #A56740",
"D  c #A66740",
"F  c #A66840",
"G  c #A66841",
"H  c #A76841",
"J  c #A76941",
"K  c #A66942",
"L  c #A76942",
"P  c #A76A42",
"I  c #A76A43",
"U  c #A66840",
"Y  c #A86942",
"T  c #A86A42",
"R  c #A96A42",
"E  c #A86A43",
"W  c #A96A43",
"Q  c #A86B43",
"!  c #A96B43",
"~  c #A96B44",
"^  c #AA6B44",
"/  c #AA6C44",
"(  c #AA6C45",
")  c #AB6C45",
"_  c #AB6D45",
"`  c #AB6E46",
"'  c #AC6D46",
"]  c #AC6E46",
"[  c #AD6E46",
"{  c #AC6E47",
"}  c #AD6E47",
"|  c #AC6F47",
" . c #AD6F47",
".. c #AE6F47",
"X. c #AD6F47",
"o. c #AD6F48",
"O. c #AE7047",
"+. c #AD7048",
"@. c #AE7048",
"#. c #AE7149",
"$. c #AF7249",
"%. c #AF724A",
"&. c #AE764F",
"*. c #AE7048",
"=. c #B0734B",
"-. c #B2754B",
";. c #B0754C",
":. c #B3774D",
">. c #B0774F",
",. c #B1774F",
"<. c #B4774E",
"1. c #B2764C",
"2. c #B3784F",
"3. c #B4794E",
"4. c #B4794F",
"5. c #B3784E",
"6. c #A37B59",
"7. c #B17750",
"8. c #B17850",
"9. c #B37950",
"0. c #B37951",
"q. c #B47950",
"w. c #B47A51",
"e. c #B67B51",
"r. c #B87F53",
"t. c #83756E",
"y. c #BA8155",
"u. c #A68065",
"i. c #AD8761",
"p. c #B08B64",
"a. c #A78575",
"s. c #A98677",
"d. c #A8877A",
"f. c #A9877A",
"g. c #A88779",
"h. c #AE8F7E",
"j. c #B58F7D",
"k. c #B7907B",
"l. c #B7917C",
"z. c #B8907C",
"x. c #B9927F",
"c. c #C48D5D",
"v. c #AA8C82",
"b. c #AD9289",
"n. c #B59283",
"m. c #B7978B",
"M. c #BFABA3",
/* pixels */
"                                                                                                                                ",
"                                                                                                                                ",
"                                                                                                                                ",
"                                                                                                                                ",
"                                                                                                                                ",
"                                                                                                                                ",
"                                                                                                                                ",
"                                                                                                                                ",
"                e . . . . . . . . . . . . . . . . . . . . . . . . . . . . . . . . . . . . . . . . . . . . . . .                 ",
"                e . o o o o O O O O O O o o o o o o o o o o o o o o o o o o X X X X X X X X X X X X X X X X X O                 ",
"                e . o o o o O O O O O O o o o o o o o o o o o o o o o o o o X X X X X X X X X X X X X X X X X o                 ",
"                e . o o o o O O O O O O o o o o o o o o o o o o o o o o o o X X X X X X X X X X X X X X X X X o                 ",
"                e . o o o o O O O O O O o o o o o o o o o o o o o o o o o o X X X X X X X X X X X X X X X X X o                 ",
"                r . o o o o O O O O O O o o o o o o o o o o o o o o o o o o X X X X X X X o o o o o X X X X X o                 ",
"                r . o o o o O O O O O O o o o o o o o o o o o o o o o o o o X X X X X X O O O O O O o o o o o O                 ",
"                r . o o o o O O O O O O o o o o o o o o o o o o o o o o o o X X X X X X O O O O O O o o o o o O                 ",
"                r . o o o o O O O O O O o o o o o o o o o o o o o o o o o o X X X X X X O O O O O O o o o o o O                 ",
"                r . o o o o O O O O O O o o o o o o o o o o o o o o o o o o X X X X X X O O O O O O o o o o o O                 ",
"                r . o o o o O O O O O O o o o o o o o o o o o o o o o o o o X X X X X X O O O O O O o o o o o O                 ",
"                e . o o o o O O O O O O o o o o o o o o o o o o o o o o o o X X X X X X o O O O O O o o o o o +                 ",
"                e . O O O O o o o o o o o o o o o o o o o o o o X X X X X X o o o o o o X X X X X X O O O O O #                 ",
"                e . O O O O o o o o o o o o o o o o o o o o o o X X X X X X o o o o o o X X X X X X O O O O O #                 ",
"                e . O O O O o o o o o o o o o o o o o o o o o o X X X X X X o o o o o o X X X X X X O O O O O #                 ",
"                e . O O O O o o o o o o o o o o o o o o o o o o X X X X X X o o o o o o X X X X X X O O O O O #                 ",
"                e . O O O O o o o o o o o o o o o o o o o o o o X X X X X X o o o o o o X X X X X X O O O O O #                 ",
"                e . O O O O O o o o o o o o o o o o o o o o o o X X X X X X o o o o o o X X X X X X o O O O O +                 ",
"                e . O O O O O O O O O O o o o o o o o o o o o o o o o o o o o o o o o o o o o o o o X X X X X o                 ",
"                r . O O O O O O O O O O o o o o o o o o o o o o o o o o o o o o o o o o o o o o o o X X X X X o                 ",
"                r . O O O O O O O O O O o o o o o o o o o o o o o o o o o o o o o o o o o o o o o o X X X X X o                 ",
"                r . O O O O O O O O O O o o o o o o o o o o o o o o o o o o o o o o o o o o o o o o X X X X X o                 ",
"                r . O O O O o o o o o o X X X X X X o o o o o o o o o o o o o o o o o o o o o o o o X X X X X o                 ",
"                r . O O O + 3 6 6 6 6 6 4 4 4 4 4 4 & o o o o o o o o o o o o o X o o o o o o o o o X X X X X o                 ",
"                r . + O O @ s ^ R K R K z V z V V k 1 X o o o o o o o o o o X X X X X X o o o o o o o o o o o O                 ",
"                r . # O # & g / R K R R K c z c c z 1 X o o o o o o o o o o X X X X X X o o o o o o o o o o o O                 ",
"                e . + % + @ s R ^ R / R c c z c z z 3 X o o o o o o o o o o X X X X X X o o o o o o o o o o o +                 ",
"                e X + O + @ g / R R R / c z c V c V 4 X o o o o o o o o o o X X X X X X o o o o o o o o o o o +                 ",
"                e . # O + @ s R / / R ^ c z c V c V 4 X o o o o o o o o o o X X X X X X o o o o o o o o o o o +                 ",
"                t.2 6 6 6 6 j / R / R / K K K D K z 4 X o o o o o o o o o o X X X X X X o o o o o o o o o o o +                 ",
"                k.V V z V z R ) ) / ) / ) %.%.%.%.) 5 X o o o o o o o o o o X X X X X X o o o o o o o o o o o +                 ",
"                z.V z z V c R R / / / / ) ) / ) / / 5 X o o o o o o o o o o X X X X X X o o o o o o o o o o o +                 ",
"                z.V z V z V R / / R / R ) / ) ) ) ) 5 X o o o o o o o o o o X X X X X X o o o o o o o o o o o +                 ",
"                l.V z z V z R / / / / ) ) %.) ) ) ) 5 X o o o o o o o o o o X X X X X X o o o o o o o o o o o +                 ",
"                z.V z z z z R / / / / ) / ) / ) / / 4 . X X X X X o o o o o X X X X X X o o o o o o o o o o o O                 ",
"                j.f f f f f K R / R / R / %.%.%.%.) 0 8 8 8 8 8 = % # # # # O X X X X X X o o o o o o o o o o O                 ",
"                f.y u a u i k K K K K K / %.%.%.%.%.:.:.:.:.:.&.q > < , , > # o o o o o X X X X X X o o o o o O                 ",
"                f.u u u u a k K K K K K ) %.%.%.%.%.:.2.8.3.q.7.q < : ; ; , # o o o o o X X X X X X o o o o o O                 ",
"                f.y u u u u V K K K K R ) %.;.=.%.=.3.3.8.2.q.8.q , : ; < : + o o o o o X X X X X X o o o o o O                 ",
"                d.y a a a u V D K D D R ) O.%.%.%.%.<.3.q.8.8.:.q < ; ; < , # o o o o o X X X X X X o o o o o O                 ",
"                f.y u u u a k K K K K K ) %.%.;.%.%.3.q.2.q.3.:.q * ; : < * # X X X X X X X X X X X X X X X X o                 ",
"                f.u a i u u f c c c c c =.:.:.:.;.:.e.r.r.r.r.r.w 9 9 9 9 9 7 5 5 5 5 5 4 1 1 1 1 1 - - - - - -                 ",
"                s.u a d a u f h f h f h 3.y.y.y.y.y.c.c.c.c.c.c.:.o.o.o.o.o.) ) ) ) ) ) z h h h h h a a u a a p                 ",
"                s.u d a a a f f f f f f :.y.y.y.y.y.c.c.c.c.c.c.<.%.%.%.%.%.%.%.%.%.%.O.z k k k k k d a a a a a                 ",
"                s.i a a a a f f f f f f 2.y.r.r.y.y.c.c.c.c.c.c.3.o.o.O.%.%.%.%.%.o.o.) z k V k V k d a a a a a                 ",
"                s.u a a a u f f h f f h 2.y.y.y.y.y.c.c.c.c.c.c.2.%.%.O.%.%.%.%.%.%.%.O.z V V k V V d a a a a a                 ",
"                a.t u u i u d f f f f f :.y.y.r.y.y.c.c.c.c.c.c.3.%.) ) ) O.%.%.%.O.%.) V f f f f f d u u i u i                 ",
"                M.b.b.b.b.b.m.m.n.n.n.n.u.6.6.6.6.6.i.p.p.p.p.p.6.C C C C C C C C C Z A h.n.n.n.n.n.v.v.b.b.b.b.                ",
"                                                                                                                                ",
"                                                                                                                                ",
"                                                                                                                                ",
"                                                                                                                                ",
"                                                                                                                                ",
"                                                                                                                                ",
"                                                                                                                                ",
"                                                                                                                                "
};
