/* XPM */
static char *d96fc02d98574421dced65fcf255e4e58DGJHFRQM97eUgkb[] = {
/* columns rows colors chars-per-pixel */
"64 64 133 2 ",
"   c None",
".  c #030100",
"X  c #0B0602",
"o  c #0E0903",
"O  c #110B04",
"+  c #140E09",
"@  c #1A1106",
"#  c #16110C",
"$  c #1C130B",
"%  c #1A1410",
"&  c #21150E",
"*  c #2B1A0D",
"=  c #251B18",
"-  c #311E11",
";  c #372011",
":  c #382111",
">  c #35231B",
",  c #3B251E",
"<  c #3A281F",
"1  c #272625",
"2  c #2D2B29",
"3  c #322521",
"4  c #3B2721",
"5  c #362823",
"6  c #3C2923",
"7  c #312F2D",
"8  c #31302E",
"9  c #42261A",
"0  c #43281F",
"q  c #5E361F",
"w  c #432B23",
"e  c #53392D",
"r  c #653D23",
"t  c #6C442F",
"y  c #74472E",
"u  c #7E5335",
"i  c #864D2E",
"p  c #894E2F",
"a  c #84502F",
"s  c #854F32",
"d  c #845333",
"f  c #8E5331",
"g  c #8B563E",
"h  c #8D5A39",
"j  c #935633",
"k  c #965935",
"l  c #9A5C36",
"z  c #955C39",
"x  c #9D5E38",
"c  c #9F6039",
"v  c #A3653D",
"b  c #A3643D",
"n  c #A1643E",
"m  c #A2643E",
"M  c #A3653E",
"N  c #A2653F",
"B  c #A4643D",
"V  c #A4653D",
"C  c #A4653E",
"Z  c #A4663E",
"A  c #A5663F",
"S  c #A5673F",
"D  c #A6673F",
"F  c #A1623B",
"G  c #935D41",
"H  c #8E6146",
"J  c #9F6642",
"K  c #9A6345",
"L  c #9B6346",
"P  c #9C6446",
"I  c #9E6647",
"U  c #986144",
"Y  c #A06642",
"T  c #A06742",
"R  c #A56740",
"E  c #A66740",
"W  c #A66840",
"Q  c #A66841",
"!  c #A76841",
"~  c #A76941",
"^  c #A76A41",
"/  c #A86942",
"(  c #A86A42",
")  c #A96B43",
"_  c #AA6B43",
"`  c #AA6B44",
"'  c #A96C44",
"]  c #AA6C44",
"[  c #AB6C45",
"{  c #AB6D45",
"}  c #AB6E45",
"|  c #AB6E46",
" . c #AC6D45",
".. c #AC6D46",
"X. c #AC6E46",
"o. c #AC6E47",
"O. c #AD6E47",
"+. c #AC6F47",
"@. c #AD6F47",
"#. c #AE6F47",
"$. c #AC6F46",
"%. c #A1694B",
"&. c #AE6F48",
"*. c #AD7047",
"=. c #AE7047",
"-. c #AD7047",
";. c #AB7049",
":. c #AD7048",
">. c #AE7048",
",. c #AF7048",
"<. c #AF7249",
"1. c #AC714A",
"2. c #AC724B",
"3. c #AE734C",
"4. c #AE7149",
"5. c #B0724A",
"6. c #B0734B",
"7. c #B0744B",
"8. c #B0744C",
"9. c #B1754C",
"0. c #B2754D",
"q. c #B1764D",
"w. c #B2764C",
"e. c #B2764D",
"r. c #B2764E",
"t. c #B3774E",
"y. c #B1754C",
"u. c #B4784E",
"i. c #AD7351",
"p. c #AF7451",
"a. c #AF7551",
"s. c #AF7552",
"d. c #B07653",
/* pixels */
"                                                                                                                                ",
"                                                                                                                                ",
"                                                                                                                                ",
"                                                                                                                                ",
"                                                                                                                                ",
"                                                                                                                                ",
"                                                                                                                                ",
"                                                                                                                                ",
"                . . . . . . . . . . . . . . . . . . . . . . . . . . . . . . . . . . . . . . . . . . . . . . . 1                 ",
"                . X X X X X X X X X X X X X X X X X X X X X X X X X X X X X X X X X X X X X X X X X o o o o X 2                 ",
"                . X X X X X X X X X X X X X X X X X X X X X X X X X X X X X X X X X X X X X X X X X o o o o X 2                 ",
"                . X X X X X X X X X X X X X X X X X X X X X X X X X X X X X X X X X X X X X X X X X o o o o X 2                 ",
"                . X X X X X X X X X X X X X X X X X X X X X X X X X X X X X X X X X X X X X X X X X o o o o X 2                 ",
"                . X X X X X X X X X X X X X X X X X X X X X X X X X X X X X X X X X X X X X X X X X o o o o X 7                 ",
"                . X X X X X X X X X X X X X X X X X o o o o o o X X X X X X o o o o o o o o o o o o O O O O o 7                 ",
"                . X X X X X X X X X X X o o o o o o o O O O O o o o o o o o o o o o o o o o o o o o O O O O o 7                 ",
"                . o o o o o X X X X X X o o o o o o O o O O o O o o o o o o o o o o o o o o o o o o O O O O o 7                 ",
"                . o o o o o X X X X X X o o o o o o O O O o O o o o o o o o o o o o o o o o o o o o O O O O o 7                 ",
"                . o o o o o X X X X X X o o o o o o o O o O O o o o o o o o o o o o o o o o o o o o O O O O o 7                 ",
"                . o o o o o X X X X X X o o o o o o O o o O o o o o o o o o o o o o o o o o o o o o O O o O o 7                 ",
"                . o o o o o O O O O O o X X X o o o X X X X X X o o o o o o o o o o o o X X X X X X o o o o X 2                 ",
"                . o o o o o O O O O O O X X X X X X X X X X X X o o o o o o o o o o o o X X X X X X o o o o X 2                 ",
"                . o o o o o O O O O O O X X X X X X X X X X X X o o o o o o o o o o o o X X X X X X o o o o X 2                 ",
"                . o o o o o O O O O O O X X X X X X X X X X X X o o o o o o o o o o o o X X X X X X o o o o X 2                 ",
"                . o o o o o O O O O O O X X X X X X X X X X X X o o o o o o o o o o o o X X X X X X o o o o X 2                 ",
"                . o o o o o O O O O O O X X X X X X X X X X X X o o o o o o o o o o o o X X X X X X o o o o X 2                 ",
"                . X X X X X o o o o o o o o o o o o O O O O O O o o o o o o X X X X X X O O O O O O O O O O O 2                 ",
"                . X X X X X o o o o o o o o o o o o O O O O O O o o o o o o X X X X X X O O O O O O O O O O O 7                 ",
"                . X X X X X o o o o o o o o o o o o O O O O O O o o o o o o X X X X X X O O O O O O O O O O O 8                 ",
"                . X X X X X o o o o o o o o o o o o O O O O O O o o o o o o X X X X X X O O O O O O O O O O O 8                 ",
"                . X X X X X o o o o o o o o o o o o O O O O O O o o o o o o X X X X X X O O O O O O O O O O O 8                 ",
"                . X X X X X o o o o o o o o o o o o O O O O O O o o o o o O O O O O O O $ $ $ $ $ @ O O O O O 8                 ",
"                . X X X X X o o o o o o o o o o o o o o o o o o o o o o o * i i d i a d h h h h h d * O O O O 8                 ",
"                . X X X X X o o o o o o o o o o o o o o o o o o o o o o o ; c b V F V b #.,.,.,.,.Y - O + O O 8                 ",
"                . X X X X X o o o o o o o o o o o o o o o o o o o o o o o ; c b b b F b #.,.,.,.,.J - O % + # 8                 ",
"                . X X X X X o o o o o o o o o o o o o o o o o o o o o o o ; F F F F b b #.,.#.` ,.J - # O O O 2                 ",
"                . X X X X X o o o o o o o o o o o o o o o o o o o o o o o ; F b F b F b #.,.,.#.,.J - O O # + 2                 ",
"                . X X X X X o o o o o o o o o o o o o o o o o o o o o o o : F F F b b F #.=.{ #.,.Y ; $ $ @ @ 7                 ",
"                . X X X X X o o o o o o X X X X X X X X X X X X o o o o o ; x F F b b F ( ( E ( ( b h h h h h H                 ",
"                . o o o o o o o o o o o X X X X X X X X X X X X o o o o o ; c b F b F F ~ ~ ~ V ~ V #.#.#.{ #.s.                ",
"                . o o o o o o o o o o o X X X X X X X X X X X X o o o o o ; c b b V F b ~ E ~ V ~ E #.{ #.{ #.s.                ",
"                . o o o o o o o o o o o X X X X X X X X X X X X o o o o o ; c b V F F b ~ ~ ~ ~ ~ ~ #.{ #.{ #.i.                ",
"                . o o o o o o o o o o o X X X X X X X X X X X X o o o o o : c F b b F b ( ~ ~ E ~ ~ { #.{ #.{ s.                ",
"                . o o o o o o o o o o o X X X X X X X X X X X X O O O O O : F b F b b F ( V ~ V ( ( #.{ { #.{ d.                ",
"                . o o o o o o o o o o o o o o o o + = = = = = < u u u u u d ~ ( ( { ~ ~ b F b F F F b b F b F %.                ",
"                . o o o o o o o o o o o O O O O O # 4 4 6 6 6 e 3.q.q.q.q.q.,.,.=.,.,.{ c l l l x l j l j l j I                 ",
"                . o o o o o o o o o o o O O O O O # > , w , w e ,.q.6.q.q.,.,.,.&.&.,.#.c l l x l l l j l j j U                 ",
"                . o o o o o o o o o o o O O O O O # 4 , 4 5 , e ,.q.6.q.q.6.,.,.,.,.,.{ l l j l l l j z j z z U                 ",
"                . o o o o o o o o o o o O O O O O & 4 4 0 0 9 e ,.q.7.q.q.7.,.&.,.,.,.{ x l l x l j j x z l z I                 ",
"                X O O O O O O O O O O O O O O O O $ 3 5 5 4 , e 3.q.6.u.q.6.#.,.#.#.=.{ c l j l l l j j z j j U                 ",
"                q q q q q q r r r r r r r r r r r r t y y t y u 3.q.q.q.q.,.,.,.,.,.,.{ l j l j j l j f j f j G                 ",
"                j j j j j j F F b F F F F F F F F F F F F F F b q.q.7.q.q.6.q.7.,.q.q.#.x l l l l j p i i i i g                 ",
"                j j j j j l F F F F F c c c c c c c F c F c c b q.q.6.q.q.6.6.6.6.u.q.,.l j l j j j p i i s s g                 ",
"                k j j j j x F F b F b F c c c c c c F F b F F F q.6.7.6.q.q.u.7.6.6.q.#.x j l l j j p s s i i g                 ",
"                j j j j j l F F x F F F c c c c c c F F c c F b 7.q.q.q.q.q.,.7.7.6.q.,.x j j j j l p i i i i g                 ",
"                j j j j j j c b F c c F c c c c c c F F F b F b 7.q.6.7.q.7.u.6.u.,.q.#.c l l l l l p i i i i g                 ",
"                                                                                                                                ",
"                                                                                                                                ",
"                                                                                                                                ",
"                                                                                                                                ",
"                                                                                                                                ",
"                                                                                                                                ",
"                                                                                                                                ",
"                                                                                                                                "
};
