/* XPM */
static char *_d0e4212554e4f8bfa3406c6c8d8f995QtA5C0Rrw1jidTlI[] = {
/* columns rows colors chars-per-pixel */
"64 64 162 2 ",
"   c None",
".  c #050000",
"X  c #050100",
"o  c #060000",
"O  c #060100",
"+  c #0A0000",
"@  c #0B0000",
"#  c #0D0000",
"$  c #0E0000",
"%  c #0E0100",
"&  c #0F0100",
"*  c #080502",
"=  c #090502",
"-  c #0A0502",
";  c #0B0502",
":  c #090602",
">  c #0A0602",
",  c #0B0602",
"<  c #0B0702",
"1  c #0B0703",
"2  c #0C0602",
"3  c #0C0702",
"4  c #0D0702",
"5  c #0C0703",
"6  c #0D0703",
"7  c #0B0803",
"8  c #0C0802",
"9  c #0D0802",
"0  c #0D0902",
"q  c #0C0803",
"w  c #0D0803",
"e  c #0D0903",
"r  c #0E0802",
"t  c #0E0803",
"y  c #0E0903",
"u  c #0F0903",
"i  c #0E0A03",
"p  c #0F0A03",
"a  c #0F0904",
"s  c #0F0A04",
"d  c #100100",
"f  c #100200",
"g  c #100A03",
"h  c #100904",
"j  c #100A04",
"k  c #100B04",
"l  c #110B04",
"z  c #110B05",
"x  c #120B05",
"c  c #110C04",
"v  c #110C05",
"b  c #120C04",
"n  c #120C05",
"m  c #1C0F06",
"M  c #120E0B",
"N  c #15110F",
"B  c #15120F",
"V  c #151210",
"C  c #161310",
"Z  c #161311",
"A  c #161411",
"S  c #171411",
"D  c #171511",
"F  c #181511",
"G  c #191511",
"H  c #251309",
"J  c #2D170C",
"K  c #2E180C",
"L  c #2E180D",
"P  c #2E190D",
"I  c #321B0E",
"U  c #3F1D0D",
"Y  c #321F17",
"T  c #3B2011",
"R  c #3B2111",
"E  c #3E2012",
"W  c #3F2112",
"Q  c #522A18",
"!  c #522B1A",
"~  c #5E3423",
"^  c #603523",
"/  c #623522",
"(  c #623623",
")  c #633623",
"_  c #673621",
"`  c #643623",
"'  c #663622",
"]  c #673722",
"[  c #663623",
"{  c #663723",
"}  c #673723",
"|  c #693621",
" . c #693721",
".. c #683722",
"X. c #693722",
"o. c #683723",
"O. c #693723",
"+. c #673823",
"@. c #683822",
"#. c #683823",
"$. c #693823",
"%. c #6A3B27",
"&. c #693A28",
"*. c #6A3B28",
"=. c #713D26",
"-. c #723F26",
";. c #733F27",
":. c #743E25",
">. c #743F26",
",. c #5A4839",
"<. c #5A493B",
"1. c #5A4A3B",
"2. c #5A4B3D",
"3. c #5B4D3F",
"4. c #7F472A",
"5. c #7F472B",
"6. c #07544D",
"7. c #08544D",
"8. c #08564E",
"9. c #095952",
"0. c #0A5952",
"q. c #0B5952",
"w. c #0B5A52",
"e. c #0C5A52",
"r. c #0D5A52",
"t. c #355B52",
"y. c #444443",
"u. c #454443",
"i. c #454543",
"p. c #464544",
"a. c #464545",
"s. c #474646",
"d. c #484747",
"f. c #484847",
"g. c #494848",
"h. c #494948",
"j. c #4C4B4A",
"k. c #465146",
"l. c #5A5143",
"z. c #5A5144",
"x. c #5B5144",
"c. c #5A5F53",
"v. c #655D4E",
"b. c #715844",
"n. c #735944",
"m. c #745945",
"M. c #5A6053",
"N. c #5B6053",
"B. c #80482B",
"V. c #81482B",
"C. c #81492B",
"Z. c #82492B",
"A. c #83492B",
"S. c #844A2B",
"D. c #81482C",
"F. c #80492C",
"G. c #82492C",
"H. c #824A2C",
"J. c #834A2C",
"K. c #824A2D",
"L. c #834B2D",
"P. c #844B2D",
/* pixels */
"                                                                                                                                ",
"                                                                                                                                ",
"                                                                                                                                ",
"                                                                                                                                ",
"                                                                                                                                ",
"                                                                                                                                ",
"                                                                                                                                ",
"                                                                                                                                ",
"                g.g.p.y.y.y.y.y.y.p.g.g.g.g.g.g.d.y.y.y.y.y.y.y.f.g.g.g.g.g.g.p.y.y.y.y.y.y.y.g.g.g.g.g.g.g.j.                  ",
"                . . . . . . . . . . . . . . . . . . . . . . . . . . . . . . . . . . . . . . . . . . . . . . M                   ",
"                ; ; ; ; ; ; ; ; ; ; ; ; ; ; ; ; ; ; ; ; ; ; ; ; ; ; ; ; ; ; ; ; ; ; ; ; ; ; ; ; ; ; ; ; ; ; B                   ",
"                ; ; ; ; ; ; ; ; ; ; ; ; ; ; ; ; ; ; ; ; ; ; ; ; ; ; ; ; ; ; ; ; ; ; ; ; ; ; ; ; ; ; ; ; ; ; B                   ",
"                ; ; ; ; ; ; ; ; ; ; ; ; ; ; ; ; ; ; ; ; ; ; ; ; ; ; ; ; ; ; ; ; ; ; ; ; ; ; ; ; ; ; ; ; ; ; V                   ",
"                ; ; ; ; ; ; ; ; ; ; ; ; ; ; ; ; ; ; ; ; ; ; ; ; ; ; ; ; ; ; ; ; ; ; ; ; ; ; ; ; ; ; ; ; ; ; V                   ",
"                l l l l l 9 ; ; ; ; ; 9 9 9 9 9 9 9 9 9 9 9 9 ; ; ; ; ; ; ; ; ; ; ; ; ; ; ; ; ; ; ; ; ; ; ; D                   ",
"                c c c c c 9 ; ; ; ; ; 9 9 9 9 9 9 9 9 9 9 9 9 3 ; ; ; ; ; ; ; ; ; ; ; ; ; ; ; ; ; ; ; ; ; ; D                   ",
"                c c c c c 9 ; ; ; ; ; 9 9 9 9 a a a 9 9 9 9 9 3 ; ; ; ; ; 3 3 3 ; ; ; ; ; ; ; ; ; ; ; ; ; ; D                   ",
"                c c c c c 9 ; ; ; ; ; 9 9 9 9 9 9 9 9 9 9 9 9 3 ; ; ; ; ; 3 3 3 ; 3 ; ; ; ; ; ; ; ; ; ; ; ; D                   ",
"                c c c c c 9 ; ; ; ; ; 9 9 9 9 9 9 9 9 9 9 9 9 3 ; ; ; ; ; 3 3 3 3 3 3 ; ; ; ; ; ; ; ; ; ; ; D                   ",
"                l l l l l 9 ; ; ; ; ; 9 9 9 9 9 9 9 9 9 9 9 9 3 ; ; ; ; ; 3 3 3 3 3 3 ; ; ; ; ; ; ; ; ; ; ; D                   ",
"                ; ; ; ; ; a c c c l l 9 9 9 9 9 9 ; ; ; ; ; ; 9 9 9 9 9 9 3 3 3 9 ; 3 ; ; ; ; ; ; ; ; ; ; ; B                   ",
"                ; ; ; ; ; a c c c c c 9 9 9 9 9 9 3 ; ; ; ; ; 9 9 9 9 9 9 3 3 3 3 3 3 ; ; ; ; ; ; ; ; ; ; ; B                   ",
"                ; ; ; ; ; a c c c c c 9 9 9 9 9 9 ; ; ; ; ; ; 9 9 9 9 9 9 3 3 3 3 ; 3 ; ; ; ; ; ; ; ; ; ; ; B                   ",
"                ; ; ; ; ; a c c c c c 9 9 9 9 9 9 3 ; ; ; ; ; 9 9 9 9 9 9 3 3 3 3 3 3 ; ; ; ; ; ; ; ; ; ; ; B                   ",
"                ; ; ; ; ; a c c c c c 9 9 9 9 9 9 3 ; ; ; ; ; 9 9 9 9 9 9 3 3 3 3 3 3 ; ; ; ; ; ; ; ; ; ; ; B                   ",
"                ; ; ; ; ; a l c c c c 9 9 9 9 9 9 3 ; ; ; ; ; 9 9 9 9 9 9 3 3 3 3 3 3 ; 3 3 3 ; ; ; ; ; ; ; B                   ",
"                9 9 9 9 9 9 9 9 9 9 9 l c c c c c 9 9 9 9 9 9 9 9 9 9 9 9 3 ; 3 ; ; 3 9 l l l g a 9 ; ; ; ; B                   ",
"                9 9 9 9 9 9 9 9 9 9 9 l c c c c c 9 9 9 9 9 9 9 9 9 9 9 9 3 3 3 3 3 3 a l l c l c 9 ; ; ; ; V                   ",
"                a 9 9 9 9 9 9 9 9 9 a l c c c c c g 9 9 9 9 9 9 9 9 9 9 9 3 ; ; ; ; ; a c c c c c 9 ; ; ; ; D                   ",
"                9 9 9 9 9 9 9 9 9 a 9 l c c c c c g 9 9 9 9 9 9 9 9 9 9 9 3 ; ; ; ; ; l c c c c c 9 ; ; ; ; D                   ",
"                9 9 9 9 9 9 9 9 9 9 9 l c c c c c g 9 9 9 9 9 9 9 9 9 9 9 3 ; ; ; ; ; l c c c c c 9 ; ; ; ; D                   ",
"                9 9 9 9 9 9 9 9 9 l 9 l l l l l l 9 9 9 9 9 9 9 9 9 9 9 9 3 3 3 3 3 3 l c c c c c 9 ; ; ; ; D                   ",
"                9 9 9 9 9 9 9 9 9 9 9 9 9 9 9 9 9 9 9 9 9 9 9 a a 9 9 9 9 l c c c c c c c c c c c 9 ; ; ; ; D                   ",
"                9 9 9 9 9 9 9 9 9 g 9 9 9 9 9 9 9 9 9 9 9 9 9 9 9 9 9 9 9 l c c c c c c c c c c c 9 ; ; ; ; D                   ",
"                9 9 9 9 9 9 9 9 9 9 9 9 9 9 9 9 9 9 9 9 9 9 9 9 9 9 9 9 9 l c c c c c c l c c c c 9 ; ; ; ; V                   ",
"                9 9 9 9 9 9 9 9 9 a 9 9 9 9 a 9 9 a a a 9 9 9 9 9 9 9 9 9 l c c c c c c c c c c c 9 ; ; ; ; B                   ",
"                9 9 9 9 9 9 9 g 9 9 9 9 9 9 9 9 9 9 9 9 9 9 a 9 9 a 9 9 9 l c c c c c c c c c c c 9 ; ; ; ; B                   ",
"                9 9 9 9 9 9 9 g 9 9 9 9 9 9 9 9 9 9 9 9 9 9 a 9 9 9 9 9 9 l l l l l l l l l l l l 9 ; ; ; ; B                   ",
"                9 9 9 9 9 ; 3 ; ; ; ; 9 9 9 9 9 9 9 9 9 9 9 9 9 9 9 9 9 9 9 9 9 9 9 9 9 9 9 9 9 9 ; ; ; ; ; B                   ",
"                9 9 9 9 9 3 ; ; ; ; ; a 9 9 9 9 9 9 9 9 9 9 9 9 9 9 9 9 9 9 9 9 9 9 9 9 9 9 9 9 9 3 ; ; ; ; B                   ",
"                9 9 9 9 9 3 ; ; ; ; ; 9 9 9 9 9 9 9 9 9 9 9 9 9 9 9 9 a 9 9 9 9 9 9 9 9 9 9 9 9 9 ; ; ; ; ; B                   ",
"                9 9 9 9 9 3 ; ; ; ; ; 9 9 9 9 9 9 9 9 9 9 9 9 9 9 9 9 a 9 9 9 9 9 9 9 a 9 9 9 9 9 ; ; ; ; ; V                   ",
"                9 9 9 9 9 3 ; ; ; ; ; 9 9 9 9 9 9 9 9 9 9 9 9 9 9 9 9 9 9 9 9 a 9 9 9 9 a a 9 9 9 ; ; ; ; ; D                   ",
"                9 9 9 9 9 3 ; ; ; ; ; 9 9 9 9 9 9 9 9 a a 9 9 9 9 9 9 9 9 9 9 9 9 9 9 9 9 9 9 9 9 3 ; ; 7 9 D                   ",
"                9 9 9 9 9 ; ; ; ; ; ; 9 9 9 9 9 9 9 9 9 9 9 9 9 9 9 9 9 9 9 9 9 9 9 9 9 9 9 9 9 9 9 9 9 9 9 F                   ",
"                9 9 9 9 9 ; ; ; ; ; ; 9 9 9 9 9 l 9 9 9 9 9 a a 9 9 a a 9 9 9 9 9 9 9 9 9 9 9 9 9 9 9 9 9 9 F                   ",
"                9 9 9 9 9 3 ; ; 3 ; ; 9 9 9 a a 9 9 9 9 9 9 9 9 9 9 9 9 9 9 a a 9 9 9 9 9 9 9 9 9 9 9 9 9 9 F                   ",
"                9 9 9 9 9 ; ; ; 3 3 3 9 9 l 9 9 9 9 9 9 9 9 9 9 9 9 9 9 9 9 9 9 9 9 9 a a 9 9 9 9 9 9 9 9 9 F                   ",
"                ; 7 ; ; ; ; ; ; ; ; ; 3 9 9 9 9 9 9 9 9 9 9 9 9 9 9 9 9 9 9 9 9 9 9 9 9 9 9 9 9 9 9 9 9 9 3 D                   ",
"                R R R R R I J J J J J m 9 a 9 a 9 9 9 9 9 9 9 9 9 9 9 3 3 3 3 9 9 3 3 H L L L L L L L L L L Y                   ",
"                G.G.G.G.G.;.$. . .$.$.E g a 9 a a 9 9 9 9 9 9 ; ; ; ; ; ; ; ; ; ; ; ; Q  . . .] $. .$. .$.$.&.                  ",
"                4.G.G.G.4.;.$. .$.$.$.E l 9 9 l l 9 9 9 9 9 9 ; ; ; ; ; ; ; ; ; ; ; ; Q ] (  .( ( $.$. .$.$.&.                  ",
"                G.B.B.P.G.>. . .$.$.$.E l a 9 9 a 9 9 9 9 9 9 ; ; ; ; ; ; ; ; ; ; ; ; Q  .] +.] ]  .$.$.$. .&.                  ",
"                G.G.B.G.B.;.$.$.$.$.$.E l l 9 l l 9 9 9 9 9 9 ; ; ; ; ; ; ; ; ; ; ; ; Q $.( ( ] ~ ] $. .$.$.&.                  ",
"                B.4.S.4.B.>. . . . . .U f f & f & & & & & & & @ @ @ @ @ @ @ @ @ @ @ @ Q  .] ]  .]  . . . . .%.                  ",
"                n.n.n.m.m.v.c.c.M.M.M.t.e.e.e.e.e.e.9.9.9.9.9.9.9.9.9.9.9.7.7.7.7.7.6.k.x.x.x.l.x.2.1.1.1.2.3.                  ",
"                                                                                                                                ",
"                                                                                                                                ",
"                                                                                                                                ",
"                                                                                                                                ",
"                                                                                                                                ",
"                                                                                                                                ",
"                                                                                                                                ",
"                                                                                                                                "
};
