/* XPM */
static char *_1114661e60245b7e9477b0ac0dd311fMBKKEMx4jQg394FW[] = {
/* columns rows colors chars-per-pixel */
"64 64 156 2 ",
"   c None",
".  c #040301",
"X  c #0B0501",
"o  c #0E0903",
"O  c #120C05",
"+  c #1D140B",
"@  c #502E22",
"#  c #43362A",
"$  c #533124",
"%  c #5B3324",
"&  c #563528",
"*  c #5B3728",
"=  c #5B392A",
"-  c #633623",
";  c #6A3721",
":  c #6A3924",
">  c #653D2D",
",  c #6D3D28",
"<  c #673A27",
"1  c #713E26",
"2  c #713F29",
"3  c #56412D",
"4  c #5F4D3D",
"5  c #6E402B",
"6  c #754127",
"7  c #754229",
"8  c #7C462A",
"9  c #7F482B",
"0  c #614D3D",
"q  c #6C4A35",
"w  c #67513F",
"e  c #6A5139",
"r  c #6F5134",
"t  c #705235",
"y  c #5D4F40",
"u  c #5F5041",
"i  c #605041",
"p  c #6E5948",
"a  c #6C5743",
"s  c #77614E",
"d  c #844B2D",
"f  c #894F2F",
"g  c #80472B",
"h  c #844E31",
"j  c #875335",
"k  c #8D5434",
"l  c #8F5838",
"z  c #915634",
"x  c #935936",
"c  c #9E5F37",
"v  c #925A39",
"b  c #9B5F3A",
"n  c #9E613A",
"m  c #A3643D",
"M  c #815E45",
"N  c #8B5E42",
"B  c #866045",
"V  c #966B4D",
"C  c #9F6440",
"Z  c #976E52",
"A  c #8B725E",
"S  c #A46640",
"D  c #A76941",
"F  c #A86A42",
"G  c #AF754D",
"H  c #B1764C",
"J  c #B57B4F",
"K  c #A17658",
"L  c #B67D53",
"P  c #B87E52",
"I  c #BE8659",
"U  c #B98055",
"Y  c #AF8763",
"T  c #AF8868",
"R  c #A5886F",
"E  c #BC8D65",
"W  c #B18A6B",
"Q  c #C08758",
"!  c #C0895C",
"~  c #C38D62",
"^  c #CB9665",
"/  c #CD9866",
"(  c #C99569",
")  c #C0936F",
"_  c #D29E6D",
"`  c #C19674",
"'  c #CE9E74",
"]  c #C39A7B",
"[  c #D09F74",
"{  c #D3A06F",
"}  c #D5A374",
"|  c #D6A579",
" . c #D8A77A",
".. c #D7A97E",
"X. c #D8A97F",
"o. c #017CCC",
"O. c #0E7DCC",
"+. c #147DCC",
"@. c #1D7ECC",
"#. c #267FCB",
"$. c #6E8ABB",
"%. c #708EBF",
"&. c #7D95B9",
"*. c #2980CC",
"=. c #7290C0",
"-. c #A39698",
";. c #8B90A7",
":. c #8095B9",
">. c #AAA3AC",
",. c #B4A8A7",
"<. c #B4A8A8",
"1. c #B4A7A6",
"2. c #C49F83",
"3. c #D5AB85",
"4. c #D9AC84",
"5. c #D3AD89",
"6. c #DAAE8A",
"7. c #D7B08E",
"8. c #DBB18D",
"9. c #CEB19D",
"0. c #D6B393",
"q. c #DDB697",
"w. c #DEB797",
"e. c #DDB594",
"r. c #DCB493",
"t. c #DDB798",
"y. c #DCB698",
"u. c #DEB798",
"i. c #DDB798",
"p. c #DDB99A",
"a. c #E0BD9F",
"s. c #C3AEA3",
"d. c #D3BFB2",
"f. c #E0BEA0",
"g. c #DFC0A9",
"h. c #DEC8BB",
"j. c #E7CCB7",
"k. c #E7CDB8",
"l. c #E8CFBC",
"z. c #E8D0BC",
"x. c #8FB4DF",
"c. c #8FB4DF",
"v. c #90B3DD",
"b. c #A0ADC7",
"n. c #C7CBD6",
"m. c #EBDDD5",
"M. c #ECDED6",
"N. c #EFE5DF",
"B. c #F0E5DF",
"V. c #C3D5EC",
"C. c #F6EBE3",
"Z. c #FEFDFD",
"A. c white",
"S. c #FFFEFE",
"D. c #FEFEFD",
"F. c #FFFFFF",
/* pixels */
"                                                                                                                                ",
"                                                                                                                                ",
"                                                                                                                                ",
"                                                                                                                                ",
"                                                                                                                                ",
"                                                                                                                                ",
"                                                                                                                                ",
"                                                                                                                                ",
"                . . . . . . . . . . . . . . . . . . . . . . . . . . . . . . . . . . . . . . . . . . . . . . .                   ",
"                X o o o o o o o o o o O O O O O O O o o o o o o o o o o o o o o o o o o o o o o o o o o o o o                   ",
"                X o o o o o o o o o o O O O O O O O o o o o o o o o o o o o o o o o o o o o o o o o o o o o o                   ",
"                X o o o o o o o o o o O O O O O O O o o o o o o o o o o o o o o o o o o o o o o o o o o o o o                   ",
"                X o o o o o o o o o o O O O O O O O o o o o o o o o o o o o o o o o o o o o o o o o o o o o o                   ",
"                X o o o o o o o o o o O O O O O O O o o o o o o o o o o o o o o o o o o o o o o o o o o o o o                   ",
"                X o o o o o o o o o o O O O O O O O O O O O O O O O O O O O O O O O O O o o o o o o o o o o o                   ",
"                X o o o o o o o o o o O O O O O O O O O O O O O O O O O O O O O O O O O o o o o o o o o o o o                   ",
"                X o o o o o o o o o o O O O O O O O O O O O O O O O O O O O O O O O O O o o o o o o o o o o o                   ",
"                X o o o o o o o o o o O O O O O O O O O O O O O O O O O O O O O O O O O o o o o o o o o o o o                   ",
"                X o o o o X . . . . . . . . . . . . . . . . . . . . . . . . . . . . . . . . . . . . o o o o o                   ",
"                X o o o X # p p p p p p p p p p p p p p p p p p p p p p p p p p p p p a e e e e e 3 O o o o o                   ",
"                o O O O . A y.q.t.q.q.t.t.q.t.t.t.t.q.q.q.t.q.q.t.t.t.t.q.q.q.t.q.q.t.8.| | | |  .Y + O O O O                   ",
"                o O O O . A q.t.t.t.t.t.t.t.t.t.t.t.t.t.t.t.t.t.t.t.t.t.t.t.q.q.q.q.q.8.}  .|  . .Y + O O O O                   ",
"                o O O O . A q.t.t.t.t.t.t.t.t.t.t.t.t.t.t.t.t.t.t.t.t.t.t.t.q.q.q.q.r.8.| | |  . .Y + O O O O                   ",
"                o O O O . A q.t.t.t.t.t.t.t.t.t.t.t.t.t.t.t.t.t.t.t.t.t.t.t.t.q.r.q.q.8.|  .| |  .Y + O O O O                   ",
"                . . . . . A q.t.t.t.t.t.t.t.t.t.t.t.t.t.t.t.t.t.t.t.t.t.t.t.t.q.r.q.q.8.} } | |  .Y + . . . .                   ",
"                s s s s s R q.q.q.t.t.t.t.t.t.t.t.t.t.t.t.t.t.t.t.t.t.t.t.t.t.t.q.q.q.8.} } } } } E t t t t r                   ",
"                6.6.6.6.6.8.t.r.q.t.t.t.t.t.t.t.t.t.t.t.t.q.t.t.t.t.t.t.t.q.t.q.r.r.q.6._ } } } { _ ^ ^ ^ ^ ^                   ",
"                8.8.7.8.6.r.t.q.t.t.t.t.t.t.t.t.t.t.t.t.t.t.t.t.t.t.t.t.t.t.t.r.q.q.q.6._ } } } } _ / / / / /                   ",
"                6.8.8.0.6.0.y.r.q.t.t.t.t.t.q.t.t.t.t.y.p.t.t.t.t.t.t.t.t.t.q.q.r.r.t.6.{ } } { { _ / / / / /                   ",
"                6.8.8.8.7.8.t.t.t.t.t.t.t.t.t.t.p.t.t.t.t.t.t.t.t.t.t.t.t.t.r.q.r.q.r.6.{ } } } } _ / / / / /                   ",
"                8.7.6.0.r.r.q.q.r.q.q.q.t.t.q.t.t.t.q.t.t.t.t.t.t.t.t.t.t.q.q.r.r.q.q.6._ { _ _ _ _ / / / / /                   ",
"                6.6.4.6.4.t.k.k.j.k.k.d.<.,.<.<.<.s.t.t.t.t.t.t.t.t.t.t.t.9.,.1.,.,.,.s.p.a.a.a.a.6.^ ^ ^ ^ ^                   ",
"                ..3...5.4.l.Z.Z.Z.Z.Z.V.*.@.@.@.+.&.y.y.q.t.t.t.t.t.t.t.q.>.#.#.#.#.+.c.Z.Z.Z.Z.Z.M.! Q Q I Q                   ",
"                4.3...5.4.z.Z.Z.Z.Z.Z.V.*.O.O.O.o.&.q.y.0.y.q.t.t.t.t.t.q.>.+.O.O.O.o.c.Z.Z.Z.Z.Z.M.! I Q Q Q                   ",
"                ..3...3...z.Z.Z.Z.Z.Z.V.*.O.O.O.o.&.t.r.y.r.q.t.t.t.t.t.q.>.+.O.O.O.o.c.Z.Z.Z.Z.Z.M.! I I I I                   ",
"                4.3.3.5.4.z.Z.Z.Z.Z.Z.V.*.O.O.O.o.&.q.0.r.0.q.t.t.t.t.t.q.>.+.O.O.O.o.c.Z.Z.Z.Z.Z.M.! I I I I                   ",
"                ..3.3.3.3.z.Z.Z.Z.Z.Z.V.+.o.o.o.o.&.t.t.q.t.q.t.t.t.t.t.t.>.+.o.o.o.o.c.Z.Z.Z.Z.Z.M.! I I I I                   ",
"                | [ | ' ' g.C.C.C.C.C.n.=.%.%.%.$.;.2.2.2.2.2.2.2.2.2.2.2.-.$.$.$.$.$.b.N.B.C.C.B.h.U P L P L                   ",
"                L L L L L ~ | | | } } ..r.8.8.8.r.W = & & & & * % * = % % V 4.4.6.4.6.[ ! ! ! ! ! L m m m m m                   ",
"                L L L L L ~ } } } } } 4.6.8.6.8.8.T * $ % $ % % $ % $ % @ V 6.4.4.6.4.| Q Q Q Q Q J m m S m m                   ",
"                L L L U L ~ } } } } } 4.6.8.8.6.8.T * $ % @ % % $ % $ % @ V 4.6.6.4.6.[ Q Q Q Q Q J m m m m m                   ",
"                L L P L L ~ } } } } } ..6.8.8.6.8.W * $ % $ % % $ % $ % @ Z 6.4.6.6.6.[ Q Q Q Q Q J m m S m m                   ",
"                L P L L L ~ } } } } } 4.6.8.8.8.8.W * $ % @ % % $ % $ % @ V 4.6.6.4.6.} ! Q Q Q Q L m m m m m                   ",
"                G G H H G I ( ( ( ( ( ` ` ] ` ` ] K - % % % % - % % % - % N ` ` ` ) ` E P P P P P H m m m m m                   ",
"                n m m n n m F F F F F v , , , , , : ; ; ; : : : ; ; ; ; ; : 7 6 6 6 7 j m m m m m m n n n n n                   ",
"                c m m m m m F F F F F v : : : : ; ; ; ; ; ; : : ; ; ; ; ; ; 1 1 1 1 1 h m m m m m m n n n n c                   ",
"                c c m m m m F F F F F x : ; : : ; ; ; ; ; ; ; ; ; ; ; ; ; ; 1 7 7 1 , h S m m m m m n n n n c                   ",
"                c m m m n m m F F F F v ; : > : : ; ; ; ; ; ; ; : % : ; ; ; 1 5 2 , 7 d m m m m m m n n n n n                   ",
"                n m m m n m F F F F F x ; : < ; > < : : ; ; ; ; : - ; ; ; ; 1 1 1 1 , d m m m m m m n n n n m                   ",
"                z z x x z x b b b n b k 1 1 1 1 , 1 : : : : : : : : : : , 1 6 7 7 8 6 h S n n C n n b b b b c                   ",
"                ; , 1 , 1 1 1 1 1 1 1 6 f f f f f d 8 9 8 9 8 9 g d 9 d d f k k k k k k v v v v v v l v k l z                   ",
"                ; 1 1 , 1 , 6 1 1 1 6 6 f f f f f d 8 g 9 9 9 9 d d d d d f k z k z k z z x z v x x k z k z k                   ",
"                ; 1 : , 1 : 1 1 6 1 1 6 f f d f d f 8 9 g 8 9 9 d 9 d f d f k k k k k z x x z v x v z z k z z                   ",
"                ; , ; 1 1 : 1 1 1 6 , 6 f f d d d d g 8 9 8 9 9 f d g d d f k k k k k z v x z v x z k v k l z                   ",
"                ; 1 : 1 : 1 1 1 1 6 : 6 f d f d f g 9 8 9 8 9 9 9 d d d d f k k k k z k x z v x v v k k v z z                   ",
"                y i u y i w 0 0 w 0 4 q 9 8 9 8 g 8 9 9 g 9 9 g 9 8 g 8 9 d d f f f f j M M B M M M B M M M M                   ",
"                                                                                                                                ",
"                                                                                                                                ",
"                                                                                                                                ",
"                                                                                                                                ",
"                                                                                                                                ",
"                                                                                                                                ",
"                                                                                                                                ",
"                                                                                                                                "
};
