/* XPM */
static char *_73e74d3e1ed4386bc6c2dadcb3098daOdxdPv06Ygrk73Va[] = {
/* columns rows colors chars-per-pixel */
"64 64 82 1 ",
"  c #373834",
". c #3A3B36",
"X c #3D3E3B",
"o c #403F3B",
"O c #3F403C",
"+ c #42423D",
"@ c #49473F",
"# c #49493F",
"$ c #3F3F40",
"% c #403F40",
"& c #3F4547",
"* c #454542",
"= c #484741",
"- c #474944",
"; c #4B4B44",
": c #4D4C47",
"> c #414748",
", c #464748",
"< c #454B49",
"1 c #4A4A48",
"2 c #4C4C48",
"3 c #4D4E48",
"4 c #4D4E4D",
"5 c #4F4F4C",
"6 c #514E45",
"7 c #504F4A",
"8 c #504F4B",
"9 c #4F5046",
"0 c #4E504B",
"q c #4F504B",
"w c #4E504D",
"e c #4E514F",
"r c #525146",
"t c #51504B",
"y c #52524C",
"u c #52524E",
"i c #53534E",
"p c #54544F",
"a c #55554F",
"s c #59564E",
"d c #5A594E",
"f c #4E5351",
"g c #525350",
"h c #535450",
"j c #545550",
"k c #545653",
"l c #575752",
"z c #565754",
"x c #575853",
"c c #575854",
"v c #585853",
"b c #5C5A53",
"n c #585854",
"m c #585954",
"M c #5A5B56",
"N c #5B5C57",
"B c #5D5D57",
"V c #565959",
"C c #5B5D58",
"Z c #5C5D58",
"A c #5D5D59",
"S c #5D5F5C",
"D c #605E56",
"F c #605F5B",
"G c #5E605C",
"H c #5F605C",
"J c #616156",
"K c #636258",
"L c #63635B",
"P c #60625D",
"I c #65655F",
"U c #68695E",
"Y c #5F6160",
"T c #626362",
"R c #686760",
"E c #676866",
"W c #696862",
"Q c #686964",
"! c #6B6B65",
"~ c #6C6B65",
"^ c #6A6B69",
"/ c #71716D",
/* pixels */
":7t:;:;3u3t=3qumZPHZSC1u3:3u=:;;:333;:;=+:qt7qumNPZZhuju3;u3=;:;",
"3a::;::33:;+333ujmmmmj=;u333;=;:3;X+=++X*3::333ujmmm33uuu335;;::",
";t:;:3quq3;+=33qjvacz3+-u;3;=;;:;+XX+++++73;333qzjjm33jau;;;=::;",
"=3u;:3uju3;;==++==*==XXX====+===++XOOX+XX3u33333jmhj13zz33;-=;==",
"==:=;3tu3;;:;=++****XX==-3;;==++vKa:;++*+37;;335uzww==jg;+++++++",
":3uuujjxjjuu7=XXXXXX$$*-55;1;;3;bRWIQB33+;;==;=*XO**XXOX=3===;3;",
";33u3jjxjjjuu3XXXXXXXX*,,,,*,;:;vIIP~QZgmjjauu;=XXXX*++.*;====;;",
"33qu3jgzmmzj33XX*X&X$XX**,**,,;;vKWIPQmgCcjjquu3XXXX+O+X=3==:=;3",
"3:333aczmmzhq;+***XXX+**,***,,;3vvZZNPhzzjju3:33*XXXO++X=:++=;=3",
";==++tjgjjjh3;=****OO*$X***O**=1wauq:3;q3333:;;;XX%XOO+XX+XX+==3",
"+++++ttajt35;==+++*==*X**=,****=;33t::tt*X*===*XXXXXXO++=;==:::=",
"++++X=====++OXXXX.-333q1<1;31**-wquqtttau:7u3;=,*X..OO+XOXX++===",
":3::qt:qu;+++++++X=;;;-<<1=1h1&;q33:3:3qtuuu73:3;=++;uhwqq=;t;+=",
"=;::::::t;+++++++++=;+-,>>*,53*-3;3::::7=:u7t7;73:=+=3111w3:t=++",
":q::;;;::;+=;=======;-,>&>>>19=-1wtrr;=:=:t37:6:;;@+=35<-33:t=++",
":t::r;;::3-=;==;;;=;355>&&*-13;53tt:+@=:=33:3=;;;;+X;ww--=;33=++",
"#=;:6;:663=+;:;=;r:;;++-==3#=#+#=#+X+++6;;;;;;@+@;++===-###;:=++",
"3=;:++7;7t;;;=;++++XXX XX.+XX++++++OO+=dsDJBjNm3:av:+.+O+@=+++6:",
"t:;t=tauvjmjtuja=.O+XXXX+++.X+O+++OO++=jIZIINZZNjBBa:X=--=9+O:ta",
"tq::3utujajjjvmu;+++XXXO+++XOO+OO+O+++=mBmZFFZPmhvv3=+-===:=+rtt",
"9tq33tuajajNjuj3t=++XXX++++.XO+++++=++-BZxvZPZIaBbdt=+----=;O3::",
":9:3::7tuhjjCutt:X++XOX****XX+++++==+X=vjjgZEPZjsttq=+=--=-;+3::",
":::q;=;::3uuau3;OXX+++X+*++Xrdut++tttauatuccmZxSmaqt3-++=+O++3;:",
";;;;XX+:3=+=-=X*+XXXXX*++XX+++=#=++=-=++:;-wguufuuaxt;ut:;OX+=;;",
"+XXXX36:;+++++X;33==+++==-=++XX+;=.XXXXXOXXX==,,+=;--=:3::+++++=",
"+++++:;;==O++O=3<3;3::-3:::;#;9;;:+++++++++=t71<1;3;-==+::=#+#=+",
"+++++======ttt33<1=;====;1=++===;t++++OXOOO=3t11--;;=+++:q:;;::=",
"X+++X+++++====;;1-=::=+#;-====:==t-+++OXXXXX;;;;,-;=::++:3==:3t=",
".XOO+++XXXX+++=;::3;==++3===:::;=;O+++XX...X=++=====::==::;;3::=",
".OOO+X+X....+==::33qq=.XO+++;;=====++X..XXXX+:;;;;:3t:+=33;37t;=",
"XXXX+OOXX..X+=+=:uuut==;3t3:=;:;;;;===X+OXXXX==#;;r3;++++===;3;=",
"XXO+++XXXX++++=;73+;u=3:;:::+=;7;,,,-;++=++X+=;;:=;3h:;=;=:=X+++",
"==+=++++.=:t7ujZGQqxTmjj::33;==:1,,,-,;+*+*+t=3jaZZTEZxj7:uaX+==",
"ta;::tt3=7:3uttaxZqjNvuaa333;=;:-,,,-17+++++=:3wumjSTHcau337X;::",
"3t7;3tuj;::37773ju3mZjajv3:3;3:3,,,,;3u=;;367u3;3juVYVVju;;;X733",
":uj3t3uj;:u377u7uu=hmuuu3:;;;=33;;-,3uu3huu3:33+3chhSjVj333=X::;",
";:uuahzc13uu337tt3+:+=+X++O++XX-=;;j;3uumut7;;3+5z5wjjjw333;+::;",
":3uujhhz,=ujau=++++;=;XX**+++X;;:33q;jqjjj;;=+X.+=1wgmh1ww=++=;;",
"=;tq33u53uuu3:==uju7mu+X+++++Oujujjjuutguq=jau3;-*++;;,===+OOX+=",
"33uuaZzhTZjzuju;ut77a7+++XX+XX3u-3:;=;=5z3-Zuuuw-==X;uq:1u;=:=:=",
"3:uuuxZzjcmjt3;=a:;=;;;3=O+=,*-333ujjjmgw11j7335;*=+=3wuwt;=::;;",
"333::xcjjavPj3=+=-=++=+=O+=,,*=3aatuuuajm3;gw;;1,,1,-3;3w3;;;:;;",
";3:taataxqugu3t=;;;3=tt;;**,,,*;tq:t63uuu-=53;15*=;;-3:;;:;=33:=",
"::3axaaja33t3;3=-==;:;:33=+=,&+33:tttta33==u:;;5**;=;3333:;;;qt=",
"=-;=t::;3;3u3==*+===3q13q3++=X+;:33;;;;3:O*ut331O++.+qwqwu;;:3a=",
":+=t==:;==:7u3+++o+o++*-wh::qt-X++++++O=:;;;;=+=XX...+**+=++-==+",
"9:::Xtut3;tum7+++++O+*+-3qqqqr3X*=+++++::;:3t:6;=;=;;wfOXXO++=-:",
"::=:+uuut;t3u;++O++O+**=313qqq3++++++++:::;:3=;;#6rtumc**33::::3",
";;;;#rr66ru67;++++++X+X+;;rrr;;+++++++=3tu3t;+=@#6:=;:r++=;;:;::",
"::;=+r667uju7;+++++=*XX+3:u;;#;+X++++++-33;;+X;3=:q;;--O+=:=;::3",
";=+++avvjammj;+XX+++XO====9=###++:;:::--3+X++X3;3:3:=-;X++-++=:3",
"BJbbaa:t333m3=;;;u3-==:3rtatr9;#@urrtauaj;+;=3u;;3;++++XXXOOO+++",
"JUWKJKKBNPQ/N3u:aBt3;;=3qq3333:#+tdaaaauN;qCmju:ts:X+++++XXX+XO.",
"dKKKKKKBaZQ^Yj3;:3==;:O=3-3;;3:=@rruauuaj;uVYjutt3=X++XXXX++OO+X",
"bPKKKKJbum^/mj313;=;;1*;=--====++;:tuuut3*wmzjwgt3=.XXXXXX+++++X",
"bJJJKKJbaxvZ;u1,;-=;w3=q:;3;==+=@+++=3;;;X;jzuww3;=XXXX++++++++X",
";:9utva:===-+=,*+OX+++=3;==;==:ur;;rat=++++;:;1,-=+XXXO++=++X+++",
":;:rqq:X+=::::;=*XX .O+:;:;;##:r9rraj37++======**X++X++++OX++=:;",
"::;:3:=+=;;;:;==*XXX++++=;=+#==;#;;-u:=++=+====**X:t::::;;=@=;==",
":t:3:;@o==+====;;+=;;::;==+=:=;;=qr3:::+X++++++*=O7taarttqu:::3:",
";qtt:;=+++++====+=;=::;;:3;+==:;;uaxutrX.++++++++Xtuadsuvau:::3:",
";======O++++++++.=:7t:3::3;+=+=;:3:6t+=+XXXXXXX. .=tvauaatu=376t",
"+==+=+X+++X. .XX.+;:;:==++++=+XX+++++X.X++=;:==:::3:;;3;=-=;=u==",
";ut7:;=u3;;+=;;:33qqau3;;3t3;:=33=:;=;=;+=;;=::tauaj1=;;;=3;=3;3"
};
